<svg xmlns="http://www.w3.org/2000/svg" width="1000" height="492" viewBox="0 0 1000 492" role="img" aria-labelledby="title desc">
<title id="title">GitHub activity</title><desc id="desc">Public contribution calendar. Streaks and totals use the shown annual window; mobile heatmap shows the last 26 weeks. Last contribution is not last login. No animated data.</desc>
<defs><linearGradient id="wash" x2="1" y2="1"><stop stop-color="#151632"/><stop offset="1" stop-color="#0B1020"/></linearGradient><linearGradient id="spectrum"><stop stop-color="#B8A1FF"/><stop offset=".52" stop-color="#83C9F4"/><stop offset="1" stop-color="#73DFCA"/></linearGradient></defs>
<style>text{font-family:Arial,Helvetica,sans-serif}@media(prefers-reduced-motion:reduce){*{animation:none!important}.travel,.return,.sweep{display:none}}</style>
<rect width="1000" height="492" fill="url(#wash)"/>
<text x="40" y="40" font-size="18" fill="#B2BED5" font-weight="600" text-anchor="start">GITHUB / АКТИВНОСТ</text><text x="40" y="93" font-size="21" fill="#B2BED5" font-weight="400" text-anchor="start">Текущ streak</text><text x="40" y="141" font-size="49" fill="#B8A1FF" font-weight="600" text-anchor="start">5</text><text x="280" y="93" font-size="21" fill="#B2BED5" font-weight="400" text-anchor="start">Най-дълъг streak</text><text x="280" y="141" font-size="49" fill="#B8A1FF" font-weight="600" text-anchor="start">5</text><text x="520" y="93" font-size="21" fill="#B2BED5" font-weight="400" text-anchor="start">Активни дни</text><text x="520" y="141" font-size="49" fill="#73DFCA" font-weight="600" text-anchor="start">20</text><text x="760" y="93" font-size="21" fill="#B2BED5" font-weight="400" text-anchor="start">Приноси</text><text x="760" y="141" font-size="49" fill="#73DFCA" font-weight="600" text-anchor="start">241</text><path d="M40 181L960 181" fill="none" stroke="#354560" stroke-width="1" /><text x="40" y="210" font-size="23" fill="#EEF2FF" font-weight="400" text-anchor="start">Последен принос: 2026-10-05</text><text x="40" y="240" font-size="23" fill="#B2BED5" font-weight="400" text-anchor="start">Последни 30 дни: 68</text><rect x="40.00" y="270.00" width="14.36" height="14.36" rx="2" fill="#25314A"><title>2025-10-05: 0</title></rect><rect x="40.00" y="287.36" width="14.36" height="14.36" rx="2" fill="#25314A"><title>2025-10-06: 0</title></rect><rect x="40.00" y="304.72" width="14.36" height="14.36" rx="2" fill="#25314A"><title>2025-10-07: 0</title></rect><rect x="40.00" y="322.08" width="14.36" height="14.36" rx="2" fill="#25314A"><title>2025-10-08: 0</title></rect><rect x="40.00" y="339.43" width="14.36" height="14.36" rx="2" fill="#25314A"><title>2025-10-09: 0</title></rect><rect x="40.00" y="356.79" width="14.36" height="14.36" rx="2" fill="#25314A"><title>2025-10-10: 0</title></rect><rect x="40.00" y="374.15" width="14.36" height="14.36" rx="2" fill="#25314A"><title>2025-10-11: 0</title></rect><rect x="57.36" y="270.00" width="14.36" height="14.36" rx="2" fill="#25314A"><title>2025-10-12: 0</title></rect><rect x="57.36" y="287.36" width="14.36" height="14.36" rx="2" fill="#25314A"><title>2025-10-13: 0</title></rect><rect x="57.36" y="304.72" width="14.36" height="14.36" rx="2" fill="#25314A"><title>2025-10-14: 0</title></rect><rect x="57.36" y="322.08" width="14.36" height="14.36" rx="2" fill="#25314A"><title>2025-10-15: 0</title></rect><rect x="57.36" y="339.43" width="14.36" height="14.36" rx="2" fill="#25314A"><title>2025-10-16: 0</title></rect><rect x="57.36" y="356.79" width="14.36" height="14.36" rx="2" fill="#25314A"><title>2025-10-17: 0</title></rect><rect x="57.36" y="374.15" width="14.36" height="14.36" rx="2" fill="#25314A"><title>2025-10-18: 0</title></rect><rect x="74.72" y="270.00" width="14.36" height="14.36" rx="2" fill="#25314A"><title>2025-10-19: 0</title></rect><rect x="74.72" y="287.36" width="14.36" height="14.36" rx="2" fill="#25314A"><title>2025-10-20: 0</title></rect><rect x="74.72" y="304.72" width="14.36" height="14.36" rx="2" fill="#25314A"><title>2025-10-21: 0</title></rect><rect x="74.72" y="322.08" width="14.36" height="14.36" rx="2" fill="#25314A"><title>2025-10-22: 0</title></rect><rect x="74.72" y="339.43" width="14.36" height="14.36" rx="2" fill="#25314A"><title>2025-10-23: 0</title></rect><rect x="74.72" y="356.79" width="14.36" height="14.36" rx="2" fill="#25314A"><title>2025-10-24: 0</title></rect><rect x="74.72" y="374.15" width="14.36" height="14.36" rx="2" fill="#25314A"><title>2025-10-25: 0</title></rect><rect x="92.08" y="270.00" width="14.36" height="14.36" rx="2" fill="#25314A"><title>2025-10-26: 0</title></rect><rect x="92.08" y="287.36" width="14.36" height="14.36" rx="2" fill="#25314A"><title>2025-10-27: 0</title></rect><rect x="92.08" y="304.72" width="14.36" height="14.36" rx="2" fill="#25314A"><title>2025-10-28: 0</title></rect><rect x="92.08" y="322.08" width="14.36" height="14.36" rx="2" fill="#25314A"><title>2025-10-29: 0</title></rect><rect x="92.08" y="339.43" width="14.36" height="14.36" rx="2" fill="#25314A"><title>2025-10-30: 0</title></rect><rect x="92.08" y="356.79" width="14.36" height="14.36" rx="2" fill="#25314A"><title>2025-10-31: 0</title></rect><rect x="92.08" y="374.15" width="14.36" height="14.36" rx="2" fill="#25314A"><title>2025-11-01: 0</title></rect><rect x="109.43" y="270.00" width="14.36" height="14.36" rx="2" fill="#25314A"><title>2025-11-02: 0</title></rect><rect x="109.43" y="287.36" width="14.36" height="14.36" rx="2" fill="#25314A"><title>2025-11-03: 0</title></rect><rect x="109.43" y="304.72" width="14.36" height="14.36" rx="2" fill="#25314A"><title>2025-11-04: 0</title></rect><rect x="109.43" y="322.08" width="14.36" height="14.36" rx="2" fill="#25314A"><title>2025-11-05: 0</title></rect><rect x="109.43" y="339.43" width="14.36" height="14.36" rx="2" fill="#25314A"><title>2025-11-06: 0</title></rect><rect x="109.43" y="356.79" width="14.36" height="14.36" rx="2" fill="#25314A"><title>2025-11-07: 0</title></rect><rect x="109.43" y="374.15" width="14.36" height="14.36" rx="2" fill="#25314A"><title>2025-11-08: 0</title></rect><rect x="126.79" y="270.00" width="14.36" height="14.36" rx="2" fill="#25314A"><title>2025-11-09: 0</title></rect><rect x="126.79" y="287.36" width="14.36" height="14.36" rx="2" fill="#25314A"><title>2025-11-10: 0</title></rect><rect x="126.79" y="304.72" width="14.36" height="14.36" rx="2" fill="#25314A"><title>2025-11-11: 0</title></rect><rect x="126.79" y="322.08" width="14.36" height="14.36" rx="2" fill="#25314A"><title>2025-11-12: 0</title></rect><rect x="126.79" y="339.43" width="14.36" height="14.36" rx="2" fill="#25314A"><title>2025-11-13: 0</title></rect><rect x="126.79" y="356.79" width="14.36" height="14.36" rx="2" fill="#25314A"><title>2025-11-14: 0</title></rect><rect x="126.79" y="374.15" width="14.36" height="14.36" rx="2" fill="#25314A"><title>2025-11-15: 0</title></rect><rect x="144.15" y="270.00" width="14.36" height="14.36" rx="2" fill="#25314A"><title>2025-11-16: 0</title></rect><rect x="144.15" y="287.36" width="14.36" height="14.36" rx="2" fill="#25314A"><title>2025-11-17: 0</title></rect><rect x="144.15" y="304.72" width="14.36" height="14.36" rx="2" fill="#25314A"><title>2025-11-18: 0</title></rect><rect x="144.15" y="322.08" width="14.36" height="14.36" rx="2" fill="#25314A"><title>2025-11-19: 0</title></rect><rect x="144.15" y="339.43" width="14.36" height="14.36" rx="2" fill="#25314A"><title>2025-11-20: 0</title></rect><rect x="144.15" y="356.79" width="14.36" height="14.36" rx="2" fill="#25314A"><title>2025-11-21: 0</title></rect><rect x="144.15" y="374.15" width="14.36" height="14.36" rx="2" fill="#25314A"><title>2025-11-22: 0</title></rect><rect x="161.51" y="270.00" width="14.36" height="14.36" rx="2" fill="#25314A"><title>2025-11-23: 0</title></rect><rect x="161.51" y="287.36" width="14.36" height="14.36" rx="2" fill="#25314A"><title>2025-11-24: 0</title></rect><rect x="161.51" y="304.72" width="14.36" height="14.36" rx="2" fill="#25314A"><title>2025-11-25: 0</title></rect><rect x="161.51" y="322.08" width="14.36" height="14.36" rx="2" fill="#25314A"><title>2025-11-26: 0</title></rect><rect x="161.51" y="339.43" width="14.36" height="14.36" rx="2" fill="#25314A"><title>2025-11-27: 0</title></rect><rect x="161.51" y="356.79" width="14.36" height="14.36" rx="2" fill="#25314A"><title>2025-11-28: 0</title></rect><rect x="161.51" y="374.15" width="14.36" height="14.36" rx="2" fill="#25314A"><title>2025-11-29: 0</title></rect><rect x="178.87" y="270.00" width="14.36" height="14.36" rx="2" fill="#25314A"><title>2025-11-30: 0</title></rect><rect x="178.87" y="287.36" width="14.36" height="14.36" rx="2" fill="#25314A"><title>2025-12-01: 0</title></rect><rect x="178.87" y="304.72" width="14.36" height="14.36" rx="2" fill="#25314A"><title>2025-12-02: 0</title></rect><rect x="178.87" y="322.08" width="14.36" height="14.36" rx="2" fill="#25314A"><title>2025-12-03: 0</title></rect><rect x="178.87" y="339.43" width="14.36" height="14.36" rx="2" fill="#25314A"><title>2025-12-04: 0</title></rect><rect x="178.87" y="356.79" width="14.36" height="14.36" rx="2" fill="#25314A"><title>2025-12-05: 0</title></rect><rect x="178.87" y="374.15" width="14.36" height="14.36" rx="2" fill="#25314A"><title>2025-12-06: 0</title></rect><rect x="196.23" y="270.00" width="14.36" height="14.36" rx="2" fill="#25314A"><title>2025-12-07: 0</title></rect><rect x="196.23" y="287.36" width="14.36" height="14.36" rx="2" fill="#79649F"><title>2025-12-08: 28</title></rect><rect x="196.23" y="304.72" width="14.36" height="14.36" rx="2" fill="#51446F"><title>2025-12-09: 6</title></rect><rect x="196.23" y="322.08" width="14.36" height="14.36" rx="2" fill="#25314A"><title>2025-12-10: 0</title></rect><rect x="196.23" y="339.43" width="14.36" height="14.36" rx="2" fill="#25314A"><title>2025-12-11: 0</title></rect><rect x="196.23" y="356.79" width="14.36" height="14.36" rx="2" fill="#25314A"><title>2025-12-12: 0</title></rect><rect x="196.23" y="374.15" width="14.36" height="14.36" rx="2" fill="#25314A"><title>2025-12-13: 0</title></rect><rect x="213.58" y="270.00" width="14.36" height="14.36" rx="2" fill="#51446F"><title>2025-12-14: 6</title></rect><rect x="213.58" y="287.36" width="14.36" height="14.36" rx="2" fill="#79649F"><title>2025-12-15: 36</title></rect><rect x="213.58" y="304.72" width="14.36" height="14.36" rx="2" fill="#25314A"><title>2025-12-16: 0</title></rect><rect x="213.58" y="322.08" width="14.36" height="14.36" rx="2" fill="#25314A"><title>2025-12-17: 0</title></rect><rect x="213.58" y="339.43" width="14.36" height="14.36" rx="2" fill="#73DFCA"><title>2025-12-18: 83</title></rect><rect x="213.58" y="356.79" width="14.36" height="14.36" rx="2" fill="#51446F"><title>2025-12-19: 10</title></rect><rect x="213.58" y="374.15" width="14.36" height="14.36" rx="2" fill="#25314A"><title>2025-12-20: 0</title></rect><rect x="230.94" y="270.00" width="14.36" height="14.36" rx="2" fill="#25314A"><title>2025-12-21: 0</title></rect><rect x="230.94" y="287.36" width="14.36" height="14.36" rx="2" fill="#25314A"><title>2025-12-22: 0</title></rect><rect x="230.94" y="304.72" width="14.36" height="14.36" rx="2" fill="#25314A"><title>2025-12-23: 0</title></rect><rect x="230.94" y="322.08" width="14.36" height="14.36" rx="2" fill="#25314A"><title>2025-12-24: 0</title></rect><rect x="230.94" y="339.43" width="14.36" height="14.36" rx="2" fill="#25314A"><title>2025-12-25: 0</title></rect><rect x="230.94" y="356.79" width="14.36" height="14.36" rx="2" fill="#25314A"><title>2025-12-26: 0</title></rect><rect x="230.94" y="374.15" width="14.36" height="14.36" rx="2" fill="#25314A"><title>2025-12-27: 0</title></rect><rect x="248.30" y="270.00" width="14.36" height="14.36" rx="2" fill="#25314A"><title>2025-12-28: 0</title></rect><rect x="248.30" y="287.36" width="14.36" height="14.36" rx="2" fill="#25314A"><title>2025-12-29: 0</title></rect><rect x="248.30" y="304.72" width="14.36" height="14.36" rx="2" fill="#25314A"><title>2025-12-30: 0</title></rect><rect x="248.30" y="322.08" width="14.36" height="14.36" rx="2" fill="#25314A"><title>2025-12-31: 0</title></rect><rect x="248.30" y="339.43" width="14.36" height="14.36" rx="2" fill="#25314A"><title>2026-01-01: 0</title></rect><rect x="248.30" y="356.79" width="14.36" height="14.36" rx="2" fill="#25314A"><title>2026-01-02: 0</title></rect><rect x="248.30" y="374.15" width="14.36" height="14.36" rx="2" fill="#25314A"><title>2026-01-03: 0</title></rect><rect x="265.66" y="270.00" width="14.36" height="14.36" rx="2" fill="#25314A"><title>2026-01-04: 0</title></rect><rect x="265.66" y="287.36" width="14.36" height="14.36" rx="2" fill="#25314A"><title>2026-01-05: 0</title></rect><rect x="265.66" y="304.72" width="14.36" height="14.36" rx="2" fill="#25314A"><title>2026-01-06: 0</title></rect><rect x="265.66" y="322.08" width="14.36" height="14.36" rx="2" fill="#25314A"><title>2026-01-07: 0</title></rect><rect x="265.66" y="339.43" width="14.36" height="14.36" rx="2" fill="#25314A"><title>2026-01-08: 0</title></rect><rect x="265.66" y="356.79" width="14.36" height="14.36" rx="2" fill="#25314A"><title>2026-01-09: 0</title></rect><rect x="265.66" y="374.15" width="14.36" height="14.36" rx="2" fill="#25314A"><title>2026-01-10: 0</title></rect><rect x="283.02" y="270.00" width="14.36" height="14.36" rx="2" fill="#25314A"><title>2026-01-11: 0</title></rect><rect x="283.02" y="287.36" width="14.36" height="14.36" rx="2" fill="#51446F"><title>2026-01-12: 2</title></rect><rect x="283.02" y="304.72" width="14.36" height="14.36" rx="2" fill="#25314A"><title>2026-01-13: 0</title></rect><rect x="283.02" y="322.08" width="14.36" height="14.36" rx="2" fill="#25314A"><title>2026-01-14: 0</title></rect><rect x="283.02" y="339.43" width="14.36" height="14.36" rx="2" fill="#25314A"><title>2026-01-15: 0</title></rect><rect x="283.02" y="356.79" width="14.36" height="14.36" rx="2" fill="#25314A"><title>2026-01-16: 0</title></rect><rect x="283.02" y="374.15" width="14.36" height="14.36" rx="2" fill="#25314A"><title>2026-01-17: 0</title></rect><rect x="300.38" y="270.00" width="14.36" height="14.36" rx="2" fill="#25314A"><title>2026-01-18: 0</title></rect><rect x="300.38" y="287.36" width="14.36" height="14.36" rx="2" fill="#25314A"><title>2026-01-19: 0</title></rect><rect x="300.38" y="304.72" width="14.36" height="14.36" rx="2" fill="#25314A"><title>2026-01-20: 0</title></rect><rect x="300.38" y="322.08" width="14.36" height="14.36" rx="2" fill="#25314A"><title>2026-01-21: 0</title></rect><rect x="300.38" y="339.43" width="14.36" height="14.36" rx="2" fill="#25314A"><title>2026-01-22: 0</title></rect><rect x="300.38" y="356.79" width="14.36" height="14.36" rx="2" fill="#25314A"><title>2026-01-23: 0</title></rect><rect x="300.38" y="374.15" width="14.36" height="14.36" rx="2" fill="#25314A"><title>2026-01-24: 0</title></rect><rect x="317.74" y="270.00" width="14.36" height="14.36" rx="2" fill="#25314A"><title>2026-01-25: 0</title></rect><rect x="317.74" y="287.36" width="14.36" height="14.36" rx="2" fill="#25314A"><title>2026-01-26: 0</title></rect><rect x="317.74" y="304.72" width="14.36" height="14.36" rx="2" fill="#25314A"><title>2026-01-27: 0</title></rect><rect x="317.74" y="322.08" width="14.36" height="14.36" rx="2" fill="#25314A"><title>2026-01-28: 0</title></rect><rect x="317.74" y="339.43" width="14.36" height="14.36" rx="2" fill="#25314A"><title>2026-01-29: 0</title></rect><rect x="317.74" y="356.79" width="14.36" height="14.36" rx="2" fill="#25314A"><title>2026-01-30: 0</title></rect><rect x="317.74" y="374.15" width="14.36" height="14.36" rx="2" fill="#25314A"><title>2026-01-31: 0</title></rect><rect x="335.09" y="270.00" width="14.36" height="14.36" rx="2" fill="#25314A"><title>2026-02-01: 0</title></rect><rect x="335.09" y="287.36" width="14.36" height="14.36" rx="2" fill="#25314A"><title>2026-02-02: 0</title></rect><rect x="335.09" y="304.72" width="14.36" height="14.36" rx="2" fill="#25314A"><title>2026-02-03: 0</title></rect><rect x="335.09" y="322.08" width="14.36" height="14.36" rx="2" fill="#25314A"><title>2026-02-04: 0</title></rect><rect x="335.09" y="339.43" width="14.36" height="14.36" rx="2" fill="#25314A"><title>2026-02-05: 0</title></rect><rect x="335.09" y="356.79" width="14.36" height="14.36" rx="2" fill="#25314A"><title>2026-02-06: 0</title></rect><rect x="335.09" y="374.15" width="14.36" height="14.36" rx="2" fill="#25314A"><title>2026-02-07: 0</title></rect><rect x="352.45" y="270.00" width="14.36" height="14.36" rx="2" fill="#25314A"><title>2026-02-08: 0</title></rect><rect x="352.45" y="287.36" width="14.36" height="14.36" rx="2" fill="#25314A"><title>2026-02-09: 0</title></rect><rect x="352.45" y="304.72" width="14.36" height="14.36" rx="2" fill="#25314A"><title>2026-02-10: 0</title></rect><rect x="352.45" y="322.08" width="14.36" height="14.36" rx="2" fill="#25314A"><title>2026-02-11: 0</title></rect><rect x="352.45" y="339.43" width="14.36" height="14.36" rx="2" fill="#25314A"><title>2026-02-12: 0</title></rect><rect x="352.45" y="356.79" width="14.36" height="14.36" rx="2" fill="#25314A"><title>2026-02-13: 0</title></rect><rect x="352.45" y="374.15" width="14.36" height="14.36" rx="2" fill="#25314A"><title>2026-02-14: 0</title></rect><rect x="369.81" y="270.00" width="14.36" height="14.36" rx="2" fill="#25314A"><title>2026-02-15: 0</title></rect><rect x="369.81" y="287.36" width="14.36" height="14.36" rx="2" fill="#25314A"><title>2026-02-16: 0</title></rect><rect x="369.81" y="304.72" width="14.36" height="14.36" rx="2" fill="#25314A"><title>2026-02-17: 0</title></rect><rect x="369.81" y="322.08" width="14.36" height="14.36" rx="2" fill="#25314A"><title>2026-02-18: 0</title></rect><rect x="369.81" y="339.43" width="14.36" height="14.36" rx="2" fill="#25314A"><title>2026-02-19: 0</title></rect><rect x="369.81" y="356.79" width="14.36" height="14.36" rx="2" fill="#25314A"><title>2026-02-20: 0</title></rect><rect x="369.81" y="374.15" width="14.36" height="14.36" rx="2" fill="#25314A"><title>2026-02-21: 0</title></rect><rect x="387.17" y="270.00" width="14.36" height="14.36" rx="2" fill="#25314A"><title>2026-02-22: 0</title></rect><rect x="387.17" y="287.36" width="14.36" height="14.36" rx="2" fill="#25314A"><title>2026-02-23: 0</title></rect><rect x="387.17" y="304.72" width="14.36" height="14.36" rx="2" fill="#25314A"><title>2026-02-24: 0</title></rect><rect x="387.17" y="322.08" width="14.36" height="14.36" rx="2" fill="#25314A"><title>2026-02-25: 0</title></rect><rect x="387.17" y="339.43" width="14.36" height="14.36" rx="2" fill="#25314A"><title>2026-02-26: 0</title></rect><rect x="387.17" y="356.79" width="14.36" height="14.36" rx="2" fill="#25314A"><title>2026-02-27: 0</title></rect><rect x="387.17" y="374.15" width="14.36" height="14.36" rx="2" fill="#25314A"><title>2026-02-28: 0</title></rect><rect x="404.53" y="270.00" width="14.36" height="14.36" rx="2" fill="#25314A"><title>2026-03-01: 0</title></rect><rect x="404.53" y="287.36" width="14.36" height="14.36" rx="2" fill="#25314A"><title>2026-03-02: 0</title></rect><rect x="404.53" y="304.72" width="14.36" height="14.36" rx="2" fill="#25314A"><title>2026-03-03: 0</title></rect><rect x="404.53" y="322.08" width="14.36" height="14.36" rx="2" fill="#25314A"><title>2026-03-04: 0</title></rect><rect x="404.53" y="339.43" width="14.36" height="14.36" rx="2" fill="#25314A"><title>2026-03-05: 0</title></rect><rect x="404.53" y="356.79" width="14.36" height="14.36" rx="2" fill="#25314A"><title>2026-03-06: 0</title></rect><rect x="404.53" y="374.15" width="14.36" height="14.36" rx="2" fill="#25314A"><title>2026-03-07: 0</title></rect><rect x="421.89" y="270.00" width="14.36" height="14.36" rx="2" fill="#25314A"><title>2026-03-08: 0</title></rect><rect x="421.89" y="287.36" width="14.36" height="14.36" rx="2" fill="#25314A"><title>2026-03-09: 0</title></rect><rect x="421.89" y="304.72" width="14.36" height="14.36" rx="2" fill="#25314A"><title>2026-03-10: 0</title></rect><rect x="421.89" y="322.08" width="14.36" height="14.36" rx="2" fill="#25314A"><title>2026-03-11: 0</title></rect><rect x="421.89" y="339.43" width="14.36" height="14.36" rx="2" fill="#25314A"><title>2026-03-12: 0</title></rect><rect x="421.89" y="356.79" width="14.36" height="14.36" rx="2" fill="#25314A"><title>2026-03-13: 0</title></rect><rect x="421.89" y="374.15" width="14.36" height="14.36" rx="2" fill="#25314A"><title>2026-03-14: 0</title></rect><rect x="439.25" y="270.00" width="14.36" height="14.36" rx="2" fill="#25314A"><title>2026-03-15: 0</title></rect><rect x="439.25" y="287.36" width="14.36" height="14.36" rx="2" fill="#25314A"><title>2026-03-16: 0</title></rect><rect x="439.25" y="304.72" width="14.36" height="14.36" rx="2" fill="#25314A"><title>2026-03-17: 0</title></rect><rect x="439.25" y="322.08" width="14.36" height="14.36" rx="2" fill="#25314A"><title>2026-03-18: 0</title></rect><rect x="439.25" y="339.43" width="14.36" height="14.36" rx="2" fill="#25314A"><title>2026-03-19: 0</title></rect><rect x="439.25" y="356.79" width="14.36" height="14.36" rx="2" fill="#25314A"><title>2026-03-20: 0</title></rect><rect x="439.25" y="374.15" width="14.36" height="14.36" rx="2" fill="#25314A"><title>2026-03-21: 0</title></rect><rect x="456.60" y="270.00" width="14.36" height="14.36" rx="2" fill="#25314A"><title>2026-03-22: 0</title></rect><rect x="456.60" y="287.36" width="14.36" height="14.36" rx="2" fill="#25314A"><title>2026-03-23: 0</title></rect><rect x="456.60" y="304.72" width="14.36" height="14.36" rx="2" fill="#25314A"><title>2026-03-24: 0</title></rect><rect x="456.60" y="322.08" width="14.36" height="14.36" rx="2" fill="#25314A"><title>2026-03-25: 0</title></rect><rect x="456.60" y="339.43" width="14.36" height="14.36" rx="2" fill="#25314A"><title>2026-03-26: 0</title></rect><rect x="456.60" y="356.79" width="14.36" height="14.36" rx="2" fill="#51446F"><title>2026-03-27: 1</title></rect><rect x="456.60" y="374.15" width="14.36" height="14.36" rx="2" fill="#25314A"><title>2026-03-28: 0</title></rect><rect x="473.96" y="270.00" width="14.36" height="14.36" rx="2" fill="#25314A"><title>2026-03-29: 0</title></rect><rect x="473.96" y="287.36" width="14.36" height="14.36" rx="2" fill="#25314A"><title>2026-03-30: 0</title></rect><rect x="473.96" y="304.72" width="14.36" height="14.36" rx="2" fill="#25314A"><title>2026-03-31: 0</title></rect><rect x="473.96" y="322.08" width="14.36" height="14.36" rx="2" fill="#25314A"><title>2026-04-01: 0</title></rect><rect x="473.96" y="339.43" width="14.36" height="14.36" rx="2" fill="#25314A"><title>2026-04-02: 0</title></rect><rect x="473.96" y="356.79" width="14.36" height="14.36" rx="2" fill="#25314A"><title>2026-04-03: 0</title></rect><rect x="473.96" y="374.15" width="14.36" height="14.36" rx="2" fill="#25314A"><title>2026-04-04: 0</title></rect><rect x="491.32" y="270.00" width="14.36" height="14.36" rx="2" fill="#25314A"><title>2026-04-05: 0</title></rect><rect x="491.32" y="287.36" width="14.36" height="14.36" rx="2" fill="#25314A"><title>2026-04-06: 0</title></rect><rect x="491.32" y="304.72" width="14.36" height="14.36" rx="2" fill="#25314A"><title>2026-04-07: 0</title></rect><rect x="491.32" y="322.08" width="14.36" height="14.36" rx="2" fill="#25314A"><title>2026-04-08: 0</title></rect><rect x="491.32" y="339.43" width="14.36" height="14.36" rx="2" fill="#25314A"><title>2026-04-09: 0</title></rect><rect x="491.32" y="356.79" width="14.36" height="14.36" rx="2" fill="#25314A"><title>2026-04-10: 0</title></rect><rect x="491.32" y="374.15" width="14.36" height="14.36" rx="2" fill="#25314A"><title>2026-04-11: 0</title></rect><rect x="508.68" y="270.00" width="14.36" height="14.36" rx="2" fill="#25314A"><title>2026-04-12: 0</title></rect><rect x="508.68" y="287.36" width="14.36" height="14.36" rx="2" fill="#25314A"><title>2026-04-13: 0</title></rect><rect x="508.68" y="304.72" width="14.36" height="14.36" rx="2" fill="#25314A"><title>2026-04-14: 0</title></rect><rect x="508.68" y="322.08" width="14.36" height="14.36" rx="2" fill="#25314A"><title>2026-04-15: 0</title></rect><rect x="508.68" y="339.43" width="14.36" height="14.36" rx="2" fill="#25314A"><title>2026-04-16: 0</title></rect><rect x="508.68" y="356.79" width="14.36" height="14.36" rx="2" fill="#25314A"><title>2026-04-17: 0</title></rect><rect x="508.68" y="374.15" width="14.36" height="14.36" rx="2" fill="#25314A"><title>2026-04-18: 0</title></rect><rect x="526.04" y="270.00" width="14.36" height="14.36" rx="2" fill="#25314A"><title>2026-04-19: 0</title></rect><rect x="526.04" y="287.36" width="14.36" height="14.36" rx="2" fill="#25314A"><title>2026-04-20: 0</title></rect><rect x="526.04" y="304.72" width="14.36" height="14.36" rx="2" fill="#25314A"><title>2026-04-21: 0</title></rect><rect x="526.04" y="322.08" width="14.36" height="14.36" rx="2" fill="#25314A"><title>2026-04-22: 0</title></rect><rect x="526.04" y="339.43" width="14.36" height="14.36" rx="2" fill="#25314A"><title>2026-04-23: 0</title></rect><rect x="526.04" y="356.79" width="14.36" height="14.36" rx="2" fill="#25314A"><title>2026-04-24: 0</title></rect><rect x="526.04" y="374.15" width="14.36" height="14.36" rx="2" fill="#25314A"><title>2026-04-25: 0</title></rect><rect x="543.40" y="270.00" width="14.36" height="14.36" rx="2" fill="#25314A"><title>2026-04-26: 0</title></rect><rect x="543.40" y="287.36" width="14.36" height="14.36" rx="2" fill="#25314A"><title>2026-04-27: 0</title></rect><rect x="543.40" y="304.72" width="14.36" height="14.36" rx="2" fill="#25314A"><title>2026-04-28: 0</title></rect><rect x="543.40" y="322.08" width="14.36" height="14.36" rx="2" fill="#25314A"><title>2026-04-29: 0</title></rect><rect x="543.40" y="339.43" width="14.36" height="14.36" rx="2" fill="#25314A"><title>2026-04-30: 0</title></rect><rect x="543.40" y="356.79" width="14.36" height="14.36" rx="2" fill="#25314A"><title>2026-05-01: 0</title></rect><rect x="543.40" y="374.15" width="14.36" height="14.36" rx="2" fill="#25314A"><title>2026-05-02: 0</title></rect><rect x="560.75" y="270.00" width="14.36" height="14.36" rx="2" fill="#25314A"><title>2026-05-03: 0</title></rect><rect x="560.75" y="287.36" width="14.36" height="14.36" rx="2" fill="#25314A"><title>2026-05-04: 0</title></rect><rect x="560.75" y="304.72" width="14.36" height="14.36" rx="2" fill="#25314A"><title>2026-05-05: 0</title></rect><rect x="560.75" y="322.08" width="14.36" height="14.36" rx="2" fill="#25314A"><title>2026-05-06: 0</title></rect><rect x="560.75" y="339.43" width="14.36" height="14.36" rx="2" fill="#25314A"><title>2026-05-07: 0</title></rect><rect x="560.75" y="356.79" width="14.36" height="14.36" rx="2" fill="#25314A"><title>2026-05-08: 0</title></rect><rect x="560.75" y="374.15" width="14.36" height="14.36" rx="2" fill="#25314A"><title>2026-05-09: 0</title></rect><rect x="578.11" y="270.00" width="14.36" height="14.36" rx="2" fill="#25314A"><title>2026-05-10: 0</title></rect><rect x="578.11" y="287.36" width="14.36" height="14.36" rx="2" fill="#25314A"><title>2026-05-11: 0</title></rect><rect x="578.11" y="304.72" width="14.36" height="14.36" rx="2" fill="#25314A"><title>2026-05-12: 0</title></rect><rect x="578.11" y="322.08" width="14.36" height="14.36" rx="2" fill="#25314A"><title>2026-05-13: 0</title></rect><rect x="578.11" y="339.43" width="14.36" height="14.36" rx="2" fill="#25314A"><title>2026-05-14: 0</title></rect><rect x="578.11" y="356.79" width="14.36" height="14.36" rx="2" fill="#25314A"><title>2026-05-15: 0</title></rect><rect x="578.11" y="374.15" width="14.36" height="14.36" rx="2" fill="#25314A"><title>2026-05-16: 0</title></rect><rect x="595.47" y="270.00" width="14.36" height="14.36" rx="2" fill="#25314A"><title>2026-05-17: 0</title></rect><rect x="595.47" y="287.36" width="14.36" height="14.36" rx="2" fill="#25314A"><title>2026-05-18: 0</title></rect><rect x="595.47" y="304.72" width="14.36" height="14.36" rx="2" fill="#25314A"><title>2026-05-19: 0</title></rect><rect x="595.47" y="322.08" width="14.36" height="14.36" rx="2" fill="#25314A"><title>2026-05-20: 0</title></rect><rect x="595.47" y="339.43" width="14.36" height="14.36" rx="2" fill="#25314A"><title>2026-05-21: 0</title></rect><rect x="595.47" y="356.79" width="14.36" height="14.36" rx="2" fill="#25314A"><title>2026-05-22: 0</title></rect><rect x="595.47" y="374.15" width="14.36" height="14.36" rx="2" fill="#25314A"><title>2026-05-23: 0</title></rect><rect x="612.83" y="270.00" width="14.36" height="14.36" rx="2" fill="#25314A"><title>2026-05-24: 0</title></rect><rect x="612.83" y="287.36" width="14.36" height="14.36" rx="2" fill="#25314A"><title>2026-05-25: 0</title></rect><rect x="612.83" y="304.72" width="14.36" height="14.36" rx="2" fill="#25314A"><title>2026-05-26: 0</title></rect><rect x="612.83" y="322.08" width="14.36" height="14.36" rx="2" fill="#25314A"><title>2026-05-27: 0</title></rect><rect x="612.83" y="339.43" width="14.36" height="14.36" rx="2" fill="#25314A"><title>2026-05-28: 0</title></rect><rect x="612.83" y="356.79" width="14.36" height="14.36" rx="2" fill="#25314A"><title>2026-05-29: 0</title></rect><rect x="612.83" y="374.15" width="14.36" height="14.36" rx="2" fill="#25314A"><title>2026-05-30: 0</title></rect><rect x="630.19" y="270.00" width="14.36" height="14.36" rx="2" fill="#25314A"><title>2026-05-31: 0</title></rect><rect x="630.19" y="287.36" width="14.36" height="14.36" rx="2" fill="#25314A"><title>2026-06-01: 0</title></rect><rect x="630.19" y="304.72" width="14.36" height="14.36" rx="2" fill="#25314A"><title>2026-06-02: 0</title></rect><rect x="630.19" y="322.08" width="14.36" height="14.36" rx="2" fill="#25314A"><title>2026-06-03: 0</title></rect><rect x="630.19" y="339.43" width="14.36" height="14.36" rx="2" fill="#25314A"><title>2026-06-04: 0</title></rect><rect x="630.19" y="356.79" width="14.36" height="14.36" rx="2" fill="#25314A"><title>2026-06-05: 0</title></rect><rect x="630.19" y="374.15" width="14.36" height="14.36" rx="2" fill="#25314A"><title>2026-06-06: 0</title></rect><rect x="647.55" y="270.00" width="14.36" height="14.36" rx="2" fill="#25314A"><title>2026-06-07: 0</title></rect><rect x="647.55" y="287.36" width="14.36" height="14.36" rx="2" fill="#25314A"><title>2026-06-08: 0</title></rect><rect x="647.55" y="304.72" width="14.36" height="14.36" rx="2" fill="#25314A"><title>2026-06-09: 0</title></rect><rect x="647.55" y="322.08" width="14.36" height="14.36" rx="2" fill="#25314A"><title>2026-06-10: 0</title></rect><rect x="647.55" y="339.43" width="14.36" height="14.36" rx="2" fill="#25314A"><title>2026-06-11: 0</title></rect><rect x="647.55" y="356.79" width="14.36" height="14.36" rx="2" fill="#25314A"><title>2026-06-12: 0</title></rect><rect x="647.55" y="374.15" width="14.36" height="14.36" rx="2" fill="#25314A"><title>2026-06-13: 0</title></rect><rect x="664.91" y="270.00" width="14.36" height="14.36" rx="2" fill="#25314A"><title>2026-06-14: 0</title></rect><rect x="664.91" y="287.36" width="14.36" height="14.36" rx="2" fill="#25314A"><title>2026-06-15: 0</title></rect><rect x="664.91" y="304.72" width="14.36" height="14.36" rx="2" fill="#25314A"><title>2026-06-16: 0</title></rect><rect x="664.91" y="322.08" width="14.36" height="14.36" rx="2" fill="#25314A"><title>2026-06-17: 0</title></rect><rect x="664.91" y="339.43" width="14.36" height="14.36" rx="2" fill="#25314A"><title>2026-06-18: 0</title></rect><rect x="664.91" y="356.79" width="14.36" height="14.36" rx="2" fill="#25314A"><title>2026-06-19: 0</title></rect><rect x="664.91" y="374.15" width="14.36" height="14.36" rx="2" fill="#25314A"><title>2026-06-20: 0</title></rect><rect x="682.26" y="270.00" width="14.36" height="14.36" rx="2" fill="#25314A"><title>2026-06-21: 0</title></rect><rect x="682.26" y="287.36" width="14.36" height="14.36" rx="2" fill="#25314A"><title>2026-06-22: 0</title></rect><rect x="682.26" y="304.72" width="14.36" height="14.36" rx="2" fill="#25314A"><title>2026-06-23: 0</title></rect><rect x="682.26" y="322.08" width="14.36" height="14.36" rx="2" fill="#25314A"><title>2026-06-24: 0</title></rect><rect x="682.26" y="339.43" width="14.36" height="14.36" rx="2" fill="#25314A"><title>2026-06-25: 0</title></rect><rect x="682.26" y="356.79" width="14.36" height="14.36" rx="2" fill="#25314A"><title>2026-06-26: 0</title></rect><rect x="682.26" y="374.15" width="14.36" height="14.36" rx="2" fill="#25314A"><title>2026-06-27: 0</title></rect><rect x="699.62" y="270.00" width="14.36" height="14.36" rx="2" fill="#25314A"><title>2026-06-28: 0</title></rect><rect x="699.62" y="287.36" width="14.36" height="14.36" rx="2" fill="#25314A"><title>2026-06-29: 0</title></rect><rect x="699.62" y="304.72" width="14.36" height="14.36" rx="2" fill="#25314A"><title>2026-06-30: 0</title></rect><rect x="699.62" y="322.08" width="14.36" height="14.36" rx="2" fill="#25314A"><title>2026-07-01: 0</title></rect><rect x="699.62" y="339.43" width="14.36" height="14.36" rx="2" fill="#25314A"><title>2026-07-02: 0</title></rect><rect x="699.62" y="356.79" width="14.36" height="14.36" rx="2" fill="#25314A"><title>2026-07-03: 0</title></rect><rect x="699.62" y="374.15" width="14.36" height="14.36" rx="2" fill="#25314A"><title>2026-07-04: 0</title></rect><rect x="716.98" y="270.00" width="14.36" height="14.36" rx="2" fill="#25314A"><title>2026-07-05: 0</title></rect><rect x="716.98" y="287.36" width="14.36" height="14.36" rx="2" fill="#25314A"><title>2026-07-06: 0</title></rect><rect x="716.98" y="304.72" width="14.36" height="14.36" rx="2" fill="#25314A"><title>2026-07-07: 0</title></rect><rect x="716.98" y="322.08" width="14.36" height="14.36" rx="2" fill="#25314A"><title>2026-07-08: 0</title></rect><rect x="716.98" y="339.43" width="14.36" height="14.36" rx="2" fill="#25314A"><title>2026-07-09: 0</title></rect><rect x="716.98" y="356.79" width="14.36" height="14.36" rx="2" fill="#25314A"><title>2026-07-10: 0</title></rect><rect x="716.98" y="374.15" width="14.36" height="14.36" rx="2" fill="#25314A"><title>2026-07-11: 0</title></rect><rect x="734.34" y="270.00" width="14.36" height="14.36" rx="2" fill="#25314A"><title>2026-07-12: 0</title></rect><rect x="734.34" y="287.36" width="14.36" height="14.36" rx="2" fill="#25314A"><title>2026-07-13: 0</title></rect><rect x="734.34" y="304.72" width="14.36" height="14.36" rx="2" fill="#25314A"><title>2026-07-14: 0</title></rect><rect x="734.34" y="322.08" width="14.36" height="14.36" rx="2" fill="#25314A"><title>2026-07-15: 0</title></rect><rect x="734.34" y="339.43" width="14.36" height="14.36" rx="2" fill="#25314A"><title>2026-07-16: 0</title></rect><rect x="734.34" y="356.79" width="14.36" height="14.36" rx="2" fill="#25314A"><title>2026-07-17: 0</title></rect><rect x="734.34" y="374.15" width="14.36" height="14.36" rx="2" fill="#25314A"><title>2026-07-18: 0</title></rect><rect x="751.70" y="270.00" width="14.36" height="14.36" rx="2" fill="#25314A"><title>2026-07-19: 0</title></rect><rect x="751.70" y="287.36" width="14.36" height="14.36" rx="2" fill="#25314A"><title>2026-07-20: 0</title></rect><rect x="751.70" y="304.72" width="14.36" height="14.36" rx="2" fill="#25314A"><title>2026-07-21: 0</title></rect><rect x="751.70" y="322.08" width="14.36" height="14.36" rx="2" fill="#25314A"><title>2026-07-22: 0</title></rect><rect x="751.70" y="339.43" width="14.36" height="14.36" rx="2" fill="#25314A"><title>2026-07-23: 0</title></rect><rect x="751.70" y="356.79" width="14.36" height="14.36" rx="2" fill="#25314A"><title>2026-07-24: 0</title></rect><rect x="751.70" y="374.15" width="14.36" height="14.36" rx="2" fill="#25314A"><title>2026-07-25: 0</title></rect><rect x="769.06" y="270.00" width="14.36" height="14.36" rx="2" fill="#25314A"><title>2026-07-26: 0</title></rect><rect x="769.06" y="287.36" width="14.36" height="14.36" rx="2" fill="#25314A"><title>2026-07-27: 0</title></rect><rect x="769.06" y="304.72" width="14.36" height="14.36" rx="2" fill="#25314A"><title>2026-07-28: 0</title></rect><rect x="769.06" y="322.08" width="14.36" height="14.36" rx="2" fill="#25314A"><title>2026-07-29: 0</title></rect><rect x="769.06" y="339.43" width="14.36" height="14.36" rx="2" fill="#25314A"><title>2026-07-30: 0</title></rect><rect x="769.06" y="356.79" width="14.36" height="14.36" rx="2" fill="#25314A"><title>2026-07-31: 0</title></rect><rect x="769.06" y="374.15" width="14.36" height="14.36" rx="2" fill="#25314A"><title>2026-08-01: 0</title></rect><rect x="786.42" y="270.00" width="14.36" height="14.36" rx="2" fill="#25314A"><title>2026-08-02: 0</title></rect><rect x="786.42" y="287.36" width="14.36" height="14.36" rx="2" fill="#25314A"><title>2026-08-03: 0</title></rect><rect x="786.42" y="304.72" width="14.36" height="14.36" rx="2" fill="#25314A"><title>2026-08-04: 0</title></rect><rect x="786.42" y="322.08" width="14.36" height="14.36" rx="2" fill="#25314A"><title>2026-08-05: 0</title></rect><rect x="786.42" y="339.43" width="14.36" height="14.36" rx="2" fill="#25314A"><title>2026-08-06: 0</title></rect><rect x="786.42" y="356.79" width="14.36" height="14.36" rx="2" fill="#25314A"><title>2026-08-07: 0</title></rect><rect x="786.42" y="374.15" width="14.36" height="14.36" rx="2" fill="#25314A"><title>2026-08-08: 0</title></rect><rect x="803.77" y="270.00" width="14.36" height="14.36" rx="2" fill="#25314A"><title>2026-08-09: 0</title></rect><rect x="803.77" y="287.36" width="14.36" height="14.36" rx="2" fill="#25314A"><title>2026-08-10: 0</title></rect><rect x="803.77" y="304.72" width="14.36" height="14.36" rx="2" fill="#25314A"><title>2026-08-11: 0</title></rect><rect x="803.77" y="322.08" width="14.36" height="14.36" rx="2" fill="#25314A"><title>2026-08-12: 0</title></rect><rect x="803.77" y="339.43" width="14.36" height="14.36" rx="2" fill="#25314A"><title>2026-08-13: 0</title></rect><rect x="803.77" y="356.79" width="14.36" height="14.36" rx="2" fill="#25314A"><title>2026-08-14: 0</title></rect><rect x="803.77" y="374.15" width="14.36" height="14.36" rx="2" fill="#25314A"><title>2026-08-15: 0</title></rect><rect x="821.13" y="270.00" width="14.36" height="14.36" rx="2" fill="#25314A"><title>2026-08-16: 0</title></rect><rect x="821.13" y="287.36" width="14.36" height="14.36" rx="2" fill="#25314A"><title>2026-08-17: 0</title></rect><rect x="821.13" y="304.72" width="14.36" height="14.36" rx="2" fill="#25314A"><title>2026-08-18: 0</title></rect><rect x="821.13" y="322.08" width="14.36" height="14.36" rx="2" fill="#25314A"><title>2026-08-19: 0</title></rect><rect x="821.13" y="339.43" width="14.36" height="14.36" rx="2" fill="#25314A"><title>2026-08-20: 0</title></rect><rect x="821.13" y="356.79" width="14.36" height="14.36" rx="2" fill="#25314A"><title>2026-08-21: 0</title></rect><rect x="821.13" y="374.15" width="14.36" height="14.36" rx="2" fill="#51446F"><title>2026-08-22: 1</title></rect><rect x="838.49" y="270.00" width="14.36" height="14.36" rx="2" fill="#25314A"><title>2026-08-23: 0</title></rect><rect x="838.49" y="287.36" width="14.36" height="14.36" rx="2" fill="#25314A"><title>2026-08-24: 0</title></rect><rect x="838.49" y="304.72" width="14.36" height="14.36" rx="2" fill="#25314A"><title>2026-08-25: 0</title></rect><rect x="838.49" y="322.08" width="14.36" height="14.36" rx="2" fill="#25314A"><title>2026-08-26: 0</title></rect><rect x="838.49" y="339.43" width="14.36" height="14.36" rx="2" fill="#25314A"><title>2026-08-27: 0</title></rect><rect x="838.49" y="356.79" width="14.36" height="14.36" rx="2" fill="#25314A"><title>2026-08-28: 0</title></rect><rect x="838.49" y="374.15" width="14.36" height="14.36" rx="2" fill="#25314A"><title>2026-08-29: 0</title></rect><rect x="855.85" y="270.00" width="14.36" height="14.36" rx="2" fill="#25314A"><title>2026-08-30: 0</title></rect><rect x="855.85" y="287.36" width="14.36" height="14.36" rx="2" fill="#25314A"><title>2026-08-31: 0</title></rect><rect x="855.85" y="304.72" width="14.36" height="14.36" rx="2" fill="#25314A"><title>2026-09-01: 0</title></rect><rect x="855.85" y="322.08" width="14.36" height="14.36" rx="2" fill="#25314A"><title>2026-09-02: 0</title></rect><rect x="855.85" y="339.43" width="14.36" height="14.36" rx="2" fill="#25314A"><title>2026-09-03: 0</title></rect><rect x="855.85" y="356.79" width="14.36" height="14.36" rx="2" fill="#25314A"><title>2026-09-04: 0</title></rect><rect x="855.85" y="374.15" width="14.36" height="14.36" rx="2" fill="#25314A"><title>2026-09-05: 0</title></rect><rect x="873.21" y="270.00" width="14.36" height="14.36" rx="2" fill="#51446F"><title>2026-09-06: 1</title></rect><rect x="873.21" y="287.36" width="14.36" height="14.36" rx="2" fill="#25314A"><title>2026-09-07: 0</title></rect><rect x="873.21" y="304.72" width="14.36" height="14.36" rx="2" fill="#25314A"><title>2026-09-08: 0</title></rect><rect x="873.21" y="322.08" width="14.36" height="14.36" rx="2" fill="#25314A"><title>2026-09-09: 0</title></rect><rect x="873.21" y="339.43" width="14.36" height="14.36" rx="2" fill="#25314A"><title>2026-09-10: 0</title></rect><rect x="873.21" y="356.79" width="14.36" height="14.36" rx="2" fill="#25314A"><title>2026-09-11: 0</title></rect><rect x="873.21" y="374.15" width="14.36" height="14.36" rx="2" fill="#25314A"><title>2026-09-12: 0</title></rect><rect x="890.57" y="270.00" width="14.36" height="14.36" rx="2" fill="#25314A"><title>2026-09-13: 0</title></rect><rect x="890.57" y="287.36" width="14.36" height="14.36" rx="2" fill="#25314A"><title>2026-09-14: 0</title></rect><rect x="890.57" y="304.72" width="14.36" height="14.36" rx="2" fill="#25314A"><title>2026-09-15: 0</title></rect><rect x="890.57" y="322.08" width="14.36" height="14.36" rx="2" fill="#25314A"><title>2026-09-16: 0</title></rect><rect x="890.57" y="339.43" width="14.36" height="14.36" rx="2" fill="#25314A"><title>2026-09-17: 0</title></rect><rect x="890.57" y="356.79" width="14.36" height="14.36" rx="2" fill="#25314A"><title>2026-09-18: 0</title></rect><rect x="890.57" y="374.15" width="14.36" height="14.36" rx="2" fill="#25314A"><title>2026-09-19: 0</title></rect><rect x="907.92" y="270.00" width="14.36" height="14.36" rx="2" fill="#25314A"><title>2026-09-20: 0</title></rect><rect x="907.92" y="287.36" width="14.36" height="14.36" rx="2" fill="#25314A"><title>2026-09-21: 0</title></rect><rect x="907.92" y="304.72" width="14.36" height="14.36" rx="2" fill="#25314A"><title>2026-09-22: 0</title></rect><rect x="907.92" y="322.08" width="14.36" height="14.36" rx="2" fill="#51446F"><title>2026-09-23: 4</title></rect><rect x="907.92" y="339.43" width="14.36" height="14.36" rx="2" fill="#51446F"><title>2026-09-24: 1</title></rect><rect x="907.92" y="356.79" width="14.36" height="14.36" rx="2" fill="#51446F"><title>2026-09-25: 8</title></rect><rect x="907.92" y="374.15" width="14.36" height="14.36" rx="2" fill="#51446F"><title>2026-09-26: 5</title></rect><rect x="925.28" y="270.00" width="14.36" height="14.36" rx="2" fill="#51446F"><title>2026-09-27: 12</title></rect><rect x="925.28" y="287.36" width="14.36" height="14.36" rx="2" fill="#25314A"><title>2026-09-28: 0</title></rect><rect x="925.28" y="304.72" width="14.36" height="14.36" rx="2" fill="#25314A"><title>2026-09-29: 0</title></rect><rect x="925.28" y="322.08" width="14.36" height="14.36" rx="2" fill="#25314A"><title>2026-09-30: 0</title></rect><rect x="925.28" y="339.43" width="14.36" height="14.36" rx="2" fill="#51446F"><title>2026-10-01: 16</title></rect><rect x="925.28" y="356.79" width="14.36" height="14.36" rx="2" fill="#51446F"><title>2026-10-02: 1</title></rect><rect x="925.28" y="374.15" width="14.36" height="14.36" rx="2" fill="#51446F"><title>2026-10-03: 1</title></rect><rect x="942.64" y="270.00" width="14.36" height="14.36" rx="2" fill="#51446F"><title>2026-10-04: 11</title></rect><rect x="942.64" y="287.36" width="14.36" height="14.36" rx="2" fill="#51446F"><title>2026-10-05: 8</title></rect><text x="40" y="415.50943396226415" font-size="18" fill="#B2BED5" font-weight="400" text-anchor="start">2025-10-05 → 2026-10-05</text><text x="40" y="467.50943396226415" font-size="18" fill="#B2BED5" font-weight="400" text-anchor="start">Обновено: 2026-10-05</text>
</svg>
