<svg xmlns="http://www.w3.org/2000/svg" width="1200" height="104" viewBox="0 0 1200 104" role="img" aria-labelledby="title desc"><title id="title">Chapter 04</title><desc id="desc">Chapter 04. Decorative section transition.</desc><defs><linearGradient id="g" x1="0" y1="0" x2="1" y2="0"><stop offset="0" stop-color="#34D399"/><stop offset="1" stop-color="#A78BFA"/></linearGradient><linearGradient id="ge" x1="0" y1="0" x2="1" y2="0"><stop offset="0" stop-color="#34D399" stop-opacity="0"/><stop offset="0.12" stop-color="#34D399" stop-opacity="0.9"/><stop offset="0.88" stop-color="#A78BFA" stop-opacity="0.9"/><stop offset="1" stop-color="#A78BFA" stop-opacity="0"/></linearGradient><radialGradient id="glow"><stop offset="0" stop-color="#34D399" stop-opacity="0.55"/><stop offset=".55" stop-color="#34D399" stop-opacity="0.193"/><stop offset="1" stop-color="#34D399" stop-opacity="0"/></radialGradient><linearGradient id="band" x1="0" y1="0" x2="1" y2="0"><stop offset="0" stop-color="#0D0A26"/><stop offset="0.5" stop-color="#151040"/><stop offset="1" stop-color="#0D0A26"/></linearGradient></defs><style>text{font-family:'Segoe UI','Helvetica Neue',Helvetica,Arial,sans-serif}.mono{font-family:ui-monospace,'SF Mono','Cascadia Mono',Menlo,Consolas,monospace}.live{display:none}@media (prefers-reduced-motion:no-preference){.live{display:inline}.still{display:none}.ringd{transform-box:fill-box;transform-origin:center;animation:spin 24s linear infinite}@keyframes spin{to{transform:rotate(360deg)}}.st{animation:star 9.8s ease-in-out infinite}@keyframes star{0%,100%{opacity:.15}8%{opacity:1}20%{opacity:.15}}}</style><rect width="1200" height="104" rx="52" fill="url(#band)"/><clipPath id="motif"><rect x="90" y="0" width="1102" height="104"/></clipPath><g clip-path="url(#motif)"><path d="M113 27L202 30" stroke="url(#ge)" stroke-opacity=".6"/><path d="M202 30L259 46" stroke="url(#ge)" stroke-opacity=".6"/><path d="M259 46L392 71" stroke="url(#ge)" stroke-opacity=".6"/><path d="M392 71L461 35" stroke="url(#ge)" stroke-opacity=".6"/><path d="M461 35L525 38" stroke="url(#ge)" stroke-opacity=".6"/><path d="M525 38L581 27" stroke="url(#ge)" stroke-opacity=".6"/><path d="M581 27L662 79" stroke="url(#ge)" stroke-opacity=".6"/><path d="M662 79L780 71" stroke="url(#ge)" stroke-opacity=".6"/><path d="M780 71L857 33" stroke="url(#ge)" stroke-opacity=".6"/><path d="M857 33L905 60" stroke="url(#ge)" stroke-opacity=".6"/><path d="M905 60L1010 74" stroke="url(#ge)" stroke-opacity=".6"/><path d="M1010 74L1098 26" stroke="url(#ge)" stroke-opacity=".6"/><path d="M1098 26L1159 63" stroke="url(#ge)" stroke-opacity=".6"/><circle cx="113" cy="27" r="2.5" fill="#A78BFA"/><circle class="st" style="animation-delay:0.0s" cx="113" cy="27" r="10" fill="url(#glow)" opacity=".15"/><circle cx="202" cy="30" r="3.5" fill="#34D399"/><circle class="st" style="animation-delay:0.7s" cx="202" cy="30" r="10" fill="url(#glow)" opacity=".15"/><circle cx="259" cy="46" r="4.5" fill="#A78BFA"/><circle class="st" style="animation-delay:1.4s" cx="259" cy="46" r="10" fill="url(#glow)" opacity=".15"/><circle cx="392" cy="71" r="2.5" fill="#34D399"/><circle class="st" style="animation-delay:2.1s" cx="392" cy="71" r="10" fill="url(#glow)" opacity=".15"/><circle cx="461" cy="35" r="3.5" fill="#A78BFA"/><circle class="st" style="animation-delay:2.8s" cx="461" cy="35" r="10" fill="url(#glow)" opacity=".15"/><circle cx="525" cy="38" r="4.5" fill="#34D399"/><circle class="st" style="animation-delay:3.5s" cx="525" cy="38" r="10" fill="url(#glow)" opacity=".15"/><circle cx="581" cy="27" r="2.5" fill="#A78BFA"/><circle class="st" style="animation-delay:4.2s" cx="581" cy="27" r="10" fill="url(#glow)" opacity=".15"/><circle cx="662" cy="79" r="3.5" fill="#34D399"/><circle class="st" style="animation-delay:4.9s" cx="662" cy="79" r="10" fill="url(#glow)" opacity=".15"/><circle cx="780" cy="71" r="4.5" fill="#A78BFA"/><circle class="st" style="animation-delay:5.6s" cx="780" cy="71" r="10" fill="url(#glow)" opacity=".15"/><circle cx="857" cy="33" r="2.5" fill="#34D399"/><circle class="st" style="animation-delay:6.3s" cx="857" cy="33" r="10" fill="url(#glow)" opacity=".15"/><circle cx="905" cy="60" r="3.5" fill="#A78BFA"/><circle class="st" style="animation-delay:7.0s" cx="905" cy="60" r="10" fill="url(#glow)" opacity=".15"/><circle cx="1010" cy="74" r="4.5" fill="#34D399"/><circle class="st" style="animation-delay:7.7s" cx="1010" cy="74" r="10" fill="url(#glow)" opacity=".15"/><circle cx="1098" cy="26" r="2.5" fill="#A78BFA"/><circle class="st" style="animation-delay:8.4s" cx="1098" cy="26" r="10" fill="url(#glow)" opacity=".15"/><circle cx="1159" cy="63" r="3.5" fill="#34D399"/><circle class="st" style="animation-delay:9.1s" cx="1159" cy="63" r="10" fill="url(#glow)" opacity=".15"/></g><circle cx="36" cy="52.0" r="40" fill="url(#glow)" opacity=".6"/><circle cx="36" cy="52.0" r="30" fill="#0D0A26" stroke="url(#g)" stroke-width="2"/><circle class="ringd" cx="36" cy="52.0" r="36" fill="none" stroke="#A78BFA" stroke-opacity=".7" stroke-dasharray="3 7"/><text x="36" y="61" font-size="24" fill="#F7F5FF" font-weight="800" text-anchor="middle">04</text></svg>
