<svg xmlns="http://www.w3.org/2000/svg" width="600" height="640" viewBox="0 0 600 640" role="img" aria-labelledby="title desc"><title id="title">Уроци от Google Applied Digital Skills</title><desc id="desc">129 Уроци от Google Applied Digital Skills: Творчество и проучване 47, Google Workspace 38, Кариера и професия 21, Данни и логика 13, AI и дигитална сигурност 10</desc><defs><linearGradient id="bg" x1="0" y1="0" x2="1" y2="1"><stop offset="0" stop-color="#0D0A26"/><stop offset="0.6" stop-color="#160F42"/><stop offset="1" stop-color="#071B2B"/></linearGradient><linearGradient id="num" x1="0" y1="0" x2="1" y2="1"><stop offset="0" stop-color="#22D3EE"/><stop offset="0.5" stop-color="#A78BFA"/><stop offset="1" stop-color="#F472B6"/></linearGradient><linearGradient id="sweep" x1="0" y1="0" x2="1" y2="0"><stop offset="0" stop-color="#fff" stop-opacity="0"/><stop offset="0.5" stop-color="#fff" stop-opacity="0.5"/><stop offset="1" stop-color="#fff" stop-opacity="0"/></linearGradient><radialGradient id="au"><stop offset="0" stop-color="#22D3EE" stop-opacity="0.3"/><stop offset=".55" stop-color="#22D3EE" stop-opacity="0.105"/><stop offset="1" stop-color="#22D3EE" stop-opacity="0"/></radialGradient></defs><style>text{font-family:'Segoe UI','Helvetica Neue',Helvetica,Arial,sans-serif}.mono{font-family:ui-monospace,'SF Mono','Cascadia Mono',Menlo,Consolas,monospace}.live{display:none}@media (prefers-reduced-motion:no-preference){.live{display:inline}.still{display:none}.sweep{animation:sweep 8s ease-in-out infinite}@keyframes sweep{0%,10%{transform:translateX(0)}60%,100%{transform:translateX(736px)}}.aur{animation:aur 28s ease-in-out infinite}@keyframes aur{50%{transform:translate(60px,-30px)}}}</style><clipPath id="frame"><rect width="600" height="640" rx="28"/></clipPath><rect width="600" height="640" rx="28" fill="url(#bg)"/><g clip-path="url(#frame)"><g class="aur"><circle cx="120" cy="320" r="240" fill="url(#au)"/></g><g transform="translate(32.0 40.0) scale(0.9167)"><path d="M12.48 10.92v3.28h7.84c-.24 1.84-.853 3.187-1.787 4.133-1.147 1.147-2.933 2.4-6.053 2.4-4.827 0-8.6-3.893-8.6-8.72s3.773-8.72 8.6-8.72c2.6 0 4.507 1.027 5.907 2.347l2.307-2.307C18.747 1.44 16.133 0 12.48 0 5.867 0 .307 5.387.307 12s5.56 12 12.173 12c3.573 0 6.267-1.173 8.373-3.36 2.16-2.16 2.84-5.213 2.84-7.667 0-.76-.053-1.467-.173-2.053H12.48z" fill="#fff"/></g><text x="66" y="58" font-size="15" fill="#22D3EE" font-weight="800" letter-spacing="2">GOOGLE APPLIED DIGITAL SKILLS</text><text x="28" y="178" font-size="120" fill="url(#num)" font-weight="800">129</text><text x="32" y="220" font-size="21" fill="#F7F5FF" font-weight="700">практически урока, всеки със</text><text x="32" y="248" font-size="21" fill="#F7F5FF" font-weight="700">собствен Google документ</text><text x="32" y="282" font-size="17" fill="#ADA6DA">Завършени 23 юли 2026 – 27 юли 2026</text><clipPath id="bar"><rect x="32" y="336" width="536" height="26" rx="13"/></clipPath><g clip-path="url(#bar)"><rect x="32.0" y="336" width="195.9" height="26" fill="#F472B6"/><rect x="227.3" y="336" width="158.5" height="26" fill="#38BDF8"/><rect x="385.2" y="336" width="87.9" height="26" fill="#FBBF24"/><rect x="472.4" y="336" width="54.6" height="26" fill="#34D399"/><rect x="526.4" y="336" width="42.2" height="26" fill="#A78BFA"/><rect class="live sweep" x="-108" y="336" width="140" height="26" fill="url(#sweep)"/></g><circle cx="40" cy="394" r="8" fill="#F472B6"/><text x="58" y="400" font-size="18" fill="#DCD6FF" font-weight="600">Творчество и проучване</text><path d="M58 409H568" stroke="#fff" stroke-opacity=".08"/><text x="568" y="400" font-size="18" fill="#F472B6" font-weight="800" text-anchor="end">47</text><circle cx="40" cy="434" r="8" fill="#38BDF8"/><text x="58" y="440" font-size="18" fill="#DCD6FF" font-weight="600">Google Workspace</text><path d="M58 449H568" stroke="#fff" stroke-opacity=".08"/><text x="568" y="440" font-size="18" fill="#38BDF8" font-weight="800" text-anchor="end">38</text><circle cx="40" cy="474" r="8" fill="#FBBF24"/><text x="58" y="480" font-size="18" fill="#DCD6FF" font-weight="600">Кариера и професия</text><path d="M58 489H568" stroke="#fff" stroke-opacity=".08"/><text x="568" y="480" font-size="18" fill="#FBBF24" font-weight="800" text-anchor="end">21</text><circle cx="40" cy="514" r="8" fill="#34D399"/><text x="58" y="520" font-size="18" fill="#DCD6FF" font-weight="600">Данни и логика</text><path d="M58 529H568" stroke="#fff" stroke-opacity=".08"/><text x="568" y="520" font-size="18" fill="#34D399" font-weight="800" text-anchor="end">13</text><circle cx="40" cy="554" r="8" fill="#A78BFA"/><text x="58" y="560" font-size="18" fill="#DCD6FF" font-weight="600">AI и дигитална сигурност</text><path d="M58 569H568" stroke="#fff" stroke-opacity=".08"/><text x="568" y="560" font-size="18" fill="#A78BFA" font-weight="800" text-anchor="end">10</text></g></svg>
