<svg xmlns="http://www.w3.org/2000/svg" width="1200" height="176" viewBox="0 0 1200 176" role="img" aria-labelledby="title desc"><title id="title">01 · НАТИВНО macOS ПРИЛОЖЕНИЕ</title><desc id="desc">01 · НАТИВНО macOS ПРИЛОЖЕНИЕ. SwiftUI интерфейс · Node.js модул за проверки · хостинг и облак. Декоративен акцент на проекта.</desc><defs><linearGradient id="bg" x1="0" y1="0" x2="1" y2="1"><stop offset="0" stop-color="#0D0A26"/><stop offset="0.6" stop-color="#151040"/><stop offset="1" stop-color="#071B2B"/></linearGradient><linearGradient id="g" x1="0" y1="0" x2="1" y2="0"><stop offset="0" stop-color="#8B5CF6"/><stop offset="1" stop-color="#22D3EE"/></linearGradient><radialGradient id="gl"><stop offset="0" stop-color="#8B5CF6" stop-opacity="0.5"/><stop offset=".55" stop-color="#8B5CF6" stop-opacity="0.175"/><stop offset="1" stop-color="#8B5CF6" stop-opacity="0"/></radialGradient><radialGradient id="gl2"><stop offset="0" stop-color="#22D3EE" stop-opacity="0.4"/><stop offset=".55" stop-color="#22D3EE" stop-opacity="0.140"/><stop offset="1" stop-color="#22D3EE" stop-opacity="0"/></radialGradient></defs><style>text{font-family:'Segoe UI','Helvetica Neue',Helvetica,Arial,sans-serif}.mono{font-family:ui-monospace,'SF Mono','Cascadia Mono',Menlo,Consolas,monospace}.live{display:none}@media (prefers-reduced-motion:no-preference){.live{display:inline}.still{display:none}.aur{animation:aur 22s ease-in-out infinite}@keyframes aur{50%{transform:translate(-40px,14px)}}.scanb{animation:scan 6s cubic-bezier(.5,0,.5,1) infinite}@keyframes scan{0%{transform:translateX(0);opacity:0}8%{opacity:.9}60%{transform:translateX(230px);opacity:.9}70%,100%{transform:translateX(230px);opacity:0}}.ok{animation:ok 6s ease-out infinite}@keyframes ok{0%,100%{opacity:.35}8%,60%{opacity:1}}}</style><clipPath id="frame"><rect width="1200" height="176" rx="22"/></clipPath><rect width="1200" height="176" rx="22" fill="url(#bg)"/><g clip-path="url(#frame)"><g class="aur"><circle cx="984" cy="53" r="229" fill="url(#gl)"/></g><circle cx="96" cy="176" r="176" fill="url(#gl2)"/><rect x="0" y="0" width="1200" height="3" fill="url(#g)"/><text x="40" y="134" font-size="118" fill="none" font-weight="800" stroke="url(#g)" stroke-width="2">01</text><text x="40" y="134" font-size="118" fill="#8B5CF6" font-weight="800" opacity=".08">01</text><text x="232" y="74" font-size="16" fill="#8B5CF6" font-weight="800" letter-spacing="3.2">НАТИВНО macOS ПРИЛОЖЕНИЕ</text><text x="232" y="112" font-size="21" fill="#DCD6FF">SwiftUI интерфейс · Node.js модул за проверки · хостинг и облак</text><g><rect x="900" y="40" width="91" height="8" rx="4" fill="#8B5CF6" opacity=".28"/><rect x="900" y="40" width="32" height="8" rx="4" fill="#8B5CF6" opacity=".55"/><circle cx="1138" cy="44" r="6" fill="#34D399" opacity=".35"/><circle class="ok" style="animation-delay:0.60s" cx="1138" cy="44" r="6" fill="#34D399" opacity=".35"/><rect x="900" y="58" width="119" height="8" rx="4" fill="#8B5CF6" opacity=".28"/><rect x="900" y="58" width="42" height="8" rx="4" fill="#8B5CF6" opacity=".55"/><circle cx="1138" cy="62" r="6" fill="#34D399" opacity=".35"/><circle class="ok" style="animation-delay:1.15s" cx="1138" cy="62" r="6" fill="#34D399" opacity=".35"/><rect x="900" y="75" width="103" height="8" rx="4" fill="#8B5CF6" opacity=".28"/><rect x="900" y="75" width="36" height="8" rx="4" fill="#8B5CF6" opacity=".55"/><circle cx="1138" cy="79" r="6" fill="#34D399" opacity=".35"/><circle class="ok" style="animation-delay:1.70s" cx="1138" cy="79" r="6" fill="#34D399" opacity=".35"/><rect x="900" y="93" width="124" height="8" rx="4" fill="#8B5CF6" opacity=".28"/><rect x="900" y="93" width="44" height="8" rx="4" fill="#8B5CF6" opacity=".55"/><circle cx="1138" cy="97" r="6" fill="#FBBF24" opacity=".35"/><circle class="ok" style="animation-delay:2.25s" cx="1138" cy="97" r="6" fill="#FBBF24" opacity=".35"/><rect x="900" y="110" width="126" height="8" rx="4" fill="#8B5CF6" opacity=".28"/><rect x="900" y="110" width="44" height="8" rx="4" fill="#8B5CF6" opacity=".55"/><circle cx="1138" cy="114" r="6" fill="#34D399" opacity=".35"/><circle class="ok" style="animation-delay:2.80s" cx="1138" cy="114" r="6" fill="#34D399" opacity=".35"/><rect x="900" y="128" width="76" height="8" rx="4" fill="#8B5CF6" opacity=".28"/><rect x="900" y="128" width="27" height="8" rx="4" fill="#8B5CF6" opacity=".55"/><circle cx="1138" cy="132" r="6" fill="#34D399" opacity=".35"/><circle class="ok" style="animation-delay:3.35s" cx="1138" cy="132" r="6" fill="#34D399" opacity=".35"/><rect class="scanb" x="890" y="34" width="4" height="108" rx="2" fill="#22D3EE" opacity=".9"/></g></g></svg>
