<svg xmlns="http://www.w3.org/2000/svg" width="1200" height="176" viewBox="0 0 1200 176" role="img" aria-labelledby="title desc"><title id="title">02 · FIVEM COMMUNITY OPERATIONS</title><desc id="desc">02 · FIVEM COMMUNITY OPERATIONS. Staff roster · ranks · handbook · Discord-synchronised roles. Decorative project accent.</desc><defs><linearGradient id="bg" x1="0" y1="0" x2="1" y2="1"><stop offset="0" stop-color="#0D0A26"/><stop offset="0.6" stop-color="#151040"/><stop offset="1" stop-color="#071B2B"/></linearGradient><linearGradient id="g" x1="0" y1="0" x2="1" y2="0"><stop offset="0" stop-color="#22D3EE"/><stop offset="1" stop-color="#34D399"/></linearGradient><radialGradient id="gl"><stop offset="0" stop-color="#22D3EE" stop-opacity="0.5"/><stop offset=".55" stop-color="#22D3EE" stop-opacity="0.175"/><stop offset="1" stop-color="#22D3EE" stop-opacity="0"/></radialGradient><radialGradient id="gl2"><stop offset="0" stop-color="#34D399" stop-opacity="0.4"/><stop offset=".55" stop-color="#34D399" stop-opacity="0.140"/><stop offset="1" stop-color="#34D399" stop-opacity="0"/></radialGradient></defs><style>text{font-family:'Segoe UI','Helvetica Neue',Helvetica,Arial,sans-serif}.mono{font-family:ui-monospace,'SF Mono','Cascadia Mono',Menlo,Consolas,monospace}.live{display:none}@media (prefers-reduced-motion:no-preference){.live{display:inline}.still{display:none}.aur{animation:aur 22s ease-in-out infinite}@keyframes aur{50%{transform:translate(-40px,14px)}}.nd{animation:node 7s ease-in-out infinite}@keyframes node{0%,100%{opacity:0}6%,22%{opacity:.85}36%{opacity:0}}}</style><clipPath id="frame"><rect width="1200" height="176" rx="22"/></clipPath><rect width="1200" height="176" rx="22" fill="url(#bg)"/><g clip-path="url(#frame)"><g class="aur"><circle cx="984" cy="53" r="229" fill="url(#gl)"/></g><circle cx="96" cy="176" r="176" fill="url(#gl2)"/><rect x="0" y="0" width="1200" height="3" fill="url(#g)"/><text x="40" y="134" font-size="118" fill="none" font-weight="800" stroke="url(#g)" stroke-width="2">02</text><text x="40" y="134" font-size="118" fill="#22D3EE" font-weight="800" opacity=".08">02</text><text x="232" y="74" font-size="16" fill="#22D3EE" font-weight="800" letter-spacing="3.2">FIVEM COMMUNITY OPERATIONS</text><text x="232" y="112" font-size="21" fill="#DCD6FF">Staff roster · ranks · handbook · Discord-synchronised roles</text><g><path d="M1030 46C1030 67 952 67 952 88" fill="none" stroke="#22D3EE" stroke-opacity=".4"/><path d="M1030 46C1030 67 1030 67 1030 88" fill="none" stroke="#22D3EE" stroke-opacity=".4"/><path d="M1030 46C1030 67 1108 67 1108 88" fill="none" stroke="#22D3EE" stroke-opacity=".4"/><path d="M952 88C952 109 921 109 921 130" fill="none" stroke="#22D3EE" stroke-opacity=".4"/><path d="M952 88C952 109 968 109 968 130" fill="none" stroke="#22D3EE" stroke-opacity=".4"/><path d="M1030 88C1030 109 1009 109 1009 130" fill="none" stroke="#22D3EE" stroke-opacity=".4"/><path d="M1030 88C1030 109 1051 109 1051 130" fill="none" stroke="#22D3EE" stroke-opacity=".4"/><path d="M1108 88C1108 109 1092 109 1092 130" fill="none" stroke="#22D3EE" stroke-opacity=".4"/><path d="M1108 88C1108 109 1139 109 1139 130" fill="none" stroke="#22D3EE" stroke-opacity=".4"/><circle cx="1030" cy="46" r="9" fill="#0D0A26" stroke="#22D3EE" stroke-width="2"/><circle class="nd" style="animation-delay:0.00s" cx="1030" cy="46" r="9" fill="#34D399" opacity="0"/><circle cx="952" cy="88" r="7" fill="#0D0A26" stroke="#22D3EE" stroke-width="2"/><circle class="nd" style="animation-delay:0.98s" cx="952" cy="88" r="7" fill="#34D399" opacity="0"/><circle cx="1030" cy="88" r="7" fill="#0D0A26" stroke="#22D3EE" stroke-width="2"/><circle class="nd" style="animation-delay:1.06s" cx="1030" cy="88" r="7" fill="#34D399" opacity="0"/><circle cx="1108" cy="88" r="7" fill="#0D0A26" stroke="#22D3EE" stroke-width="2"/><circle class="nd" style="animation-delay:1.14s" cx="1108" cy="88" r="7" fill="#34D399" opacity="0"/><circle cx="921" cy="130" r="5" fill="#0D0A26" stroke="#34D399" stroke-width="2"/><circle class="nd" style="animation-delay:2.12s" cx="921" cy="130" r="5" fill="#34D399" opacity="0"/><circle cx="968" cy="130" r="5" fill="#0D0A26" stroke="#34D399" stroke-width="2"/><circle class="nd" style="animation-delay:2.20s" cx="968" cy="130" r="5" fill="#34D399" opacity="0"/><circle cx="1009" cy="130" r="5" fill="#0D0A26" stroke="#34D399" stroke-width="2"/><circle class="nd" style="animation-delay:2.28s" cx="1009" cy="130" r="5" fill="#34D399" opacity="0"/><circle cx="1051" cy="130" r="5" fill="#0D0A26" stroke="#34D399" stroke-width="2"/><circle class="nd" style="animation-delay:2.36s" cx="1051" cy="130" r="5" fill="#34D399" opacity="0"/><circle cx="1092" cy="130" r="5" fill="#0D0A26" stroke="#34D399" stroke-width="2"/><circle class="nd" style="animation-delay:2.44s" cx="1092" cy="130" r="5" fill="#34D399" opacity="0"/><circle cx="1139" cy="130" r="5" fill="#0D0A26" stroke="#34D399" stroke-width="2"/><circle class="nd" style="animation-delay:2.52s" cx="1139" cy="130" r="5" fill="#34D399" opacity="0"/></g></g></svg>
