<svg xmlns="http://www.w3.org/2000/svg" width="600" height="270" viewBox="0 0 600 270" role="img" aria-labelledby="title desc"><title id="title">02 · ОПЕРАЦИИ ЗА FIVEM ОБЩНОСТ</title><desc id="desc">02 · ОПЕРАЦИИ ЗА FIVEM ОБЩНОСТ. Състав · звания · наръчник · роли, синхронизирани с Discord. Декоративен акцент на проекта.</desc><defs><linearGradient id="bg" x1="0" y1="0" x2="1" y2="1"><stop offset="0" stop-color="#0D0A26"/><stop offset="0.6" stop-color="#151040"/><stop offset="1" stop-color="#071B2B"/></linearGradient><linearGradient id="g" x1="0" y1="0" x2="1" y2="0"><stop offset="0" stop-color="#22D3EE"/><stop offset="1" stop-color="#34D399"/></linearGradient><radialGradient id="gl"><stop offset="0" stop-color="#22D3EE" stop-opacity="0.5"/><stop offset=".55" stop-color="#22D3EE" stop-opacity="0.175"/><stop offset="1" stop-color="#22D3EE" stop-opacity="0"/></radialGradient><radialGradient id="gl2"><stop offset="0" stop-color="#34D399" stop-opacity="0.4"/><stop offset=".55" stop-color="#34D399" stop-opacity="0.140"/><stop offset="1" stop-color="#34D399" stop-opacity="0"/></radialGradient></defs><style>text{font-family:'Segoe UI','Helvetica Neue',Helvetica,Arial,sans-serif}.mono{font-family:ui-monospace,'SF Mono','Cascadia Mono',Menlo,Consolas,monospace}.live{display:none}@media (prefers-reduced-motion:no-preference){.live{display:inline}.still{display:none}.aur{animation:aur 22s ease-in-out infinite}@keyframes aur{50%{transform:translate(-40px,14px)}}.nd{animation:node 7s ease-in-out infinite}@keyframes node{0%,100%{opacity:0}6%,22%{opacity:.85}36%{opacity:0}}}</style><clipPath id="frame"><rect width="600" height="270" rx="22"/></clipPath><rect width="600" height="270" rx="22" fill="url(#bg)"/><g clip-path="url(#frame)"><g class="aur"><circle cx="492" cy="81" r="351" fill="url(#gl)"/></g><circle cx="48" cy="270" r="270" fill="url(#gl2)"/><rect x="0" y="0" width="600" height="3" fill="url(#g)"/><text x="24" y="92" font-size="80" fill="none" font-weight="800" stroke="url(#g)" stroke-width="2">02</text><text x="140" y="50" font-size="19" fill="#22D3EE" font-weight="800" letter-spacing="2">ОПЕРАЦИИ ЗА FIVEM</text><text x="140" y="74" font-size="19" fill="#22D3EE" font-weight="800" letter-spacing="2">ОБЩНОСТ</text><text x="140" y="104" font-size="21" fill="#DCD6FF">Състав · звания · наръчник · роли,</text><text x="140" y="132" font-size="21" fill="#DCD6FF">синхронизирани с Discord</text><g><path d="M300 198C300 208 138 208 138 217" fill="none" stroke="#22D3EE" stroke-opacity=".4"/><path d="M300 198C300 208 300 208 300 217" fill="none" stroke="#22D3EE" stroke-opacity=".4"/><path d="M300 198C300 208 462 208 462 217" fill="none" stroke="#22D3EE" stroke-opacity=".4"/><path d="M138 217C138 226 73 226 73 236" fill="none" stroke="#22D3EE" stroke-opacity=".4"/><path d="M138 217C138 226 170 226 170 236" fill="none" stroke="#22D3EE" stroke-opacity=".4"/><path d="M300 217C300 226 257 226 257 236" fill="none" stroke="#22D3EE" stroke-opacity=".4"/><path d="M300 217C300 226 343 226 343 236" fill="none" stroke="#22D3EE" stroke-opacity=".4"/><path d="M462 217C462 226 430 226 430 236" fill="none" stroke="#22D3EE" stroke-opacity=".4"/><path d="M462 217C462 226 527 226 527 236" fill="none" stroke="#22D3EE" stroke-opacity=".4"/><circle cx="300" cy="198" r="9" fill="#0D0A26" stroke="#22D3EE" stroke-width="2"/><circle class="nd" style="animation-delay:0.00s" cx="300" cy="198" r="9" fill="#34D399" opacity="0"/><circle cx="138" cy="217" r="7" fill="#0D0A26" stroke="#22D3EE" stroke-width="2"/><circle class="nd" style="animation-delay:0.98s" cx="138" cy="217" r="7" fill="#34D399" opacity="0"/><circle cx="300" cy="217" r="7" fill="#0D0A26" stroke="#22D3EE" stroke-width="2"/><circle class="nd" style="animation-delay:1.06s" cx="300" cy="217" r="7" fill="#34D399" opacity="0"/><circle cx="462" cy="217" r="7" fill="#0D0A26" stroke="#22D3EE" stroke-width="2"/><circle class="nd" style="animation-delay:1.14s" cx="462" cy="217" r="7" fill="#34D399" opacity="0"/><circle cx="73" cy="236" r="5" fill="#0D0A26" stroke="#34D399" stroke-width="2"/><circle class="nd" style="animation-delay:2.12s" cx="73" cy="236" r="5" fill="#34D399" opacity="0"/><circle cx="170" cy="236" r="5" fill="#0D0A26" stroke="#34D399" stroke-width="2"/><circle class="nd" style="animation-delay:2.20s" cx="170" cy="236" r="5" fill="#34D399" opacity="0"/><circle cx="257" cy="236" r="5" fill="#0D0A26" stroke="#34D399" stroke-width="2"/><circle class="nd" style="animation-delay:2.28s" cx="257" cy="236" r="5" fill="#34D399" opacity="0"/><circle cx="343" cy="236" r="5" fill="#0D0A26" stroke="#34D399" stroke-width="2"/><circle class="nd" style="animation-delay:2.36s" cx="343" cy="236" r="5" fill="#34D399" opacity="0"/><circle cx="430" cy="236" r="5" fill="#0D0A26" stroke="#34D399" stroke-width="2"/><circle class="nd" style="animation-delay:2.44s" cx="430" cy="236" r="5" fill="#34D399" opacity="0"/><circle cx="527" cy="236" r="5" fill="#0D0A26" stroke="#34D399" stroke-width="2"/><circle class="nd" style="animation-delay:2.52s" cx="527" cy="236" r="5" fill="#34D399" opacity="0"/></g></g></svg>
