<svg xmlns="http://www.w3.org/2000/svg" width="600" height="1822" viewBox="0 0 600 1822" role="img" aria-labelledby="title desc"><title id="title">Услуги</title><desc id="desc">Сайтове и онлайн бизнес: Фирмени сайтове, целеви страници, портфолиа, онлайн магазини, интерфейси за резервации и обновяване на съществуващи сайтове. (Адаптивен дизайн · UI/UX · Интеграции · Производителност). Софтуер и платформи: Уеб и настолни приложения, табла, административни панели, клиентски портали и вътрешни бизнес инструменти. (Интерфейс · Сървърна логика · Бази данни · Вход). Discord ботове и общности: Команди, тикети, модерация, роли, известия, дневници на събитията и свързани административни табла. (Ботове · API · Автоматизация · Сървърни интеграции). Игри и FiveM системи: Игри и прототипи, игрови механики, сървърни ресурси, NUI интерфейси, професии, инвентари и инструменти за екипа. (Игрова логика · Клиент и сървър · Съхранение на данни). Автоматизации и AI: Скриптове за повтарящи се задачи, AI функционалности, асистенти, обработка на данни и свързване на услуги. (API · Webhooks · Скриптове · AI интеграции). Поддръжка и развитие: Нови функции, поправка на грешки, преработка на код, оптимизация, миграции, подобрения на интерфейса и подготовка за публикуване. (Съществуващи проекти · Технически подобрения · Поддръжка).</desc><defs><linearGradient id="bg" x1="0" y1="0" x2="1" y2="1"><stop offset="0" stop-color="#08061A"/><stop offset="0.55" stop-color="#150F40"/><stop offset="1" stop-color="#071B2B"/></linearGradient><radialGradient id="au1"><stop offset="0" stop-color="#8B5CF6" stop-opacity="0.38"/><stop offset=".55" stop-color="#8B5CF6" stop-opacity="0.133"/><stop offset="1" stop-color="#8B5CF6" stop-opacity="0"/></radialGradient><radialGradient id="au2"><stop offset="0" stop-color="#22D3EE" stop-opacity="0.26"/><stop offset=".55" stop-color="#22D3EE" stop-opacity="0.091"/><stop offset="1" stop-color="#22D3EE" stop-opacity="0"/></radialGradient><linearGradient id="shine" x1="0" y1="0" x2="1" y2="0"><stop offset="0" stop-color="#fff" stop-opacity="0"/><stop offset="0.5" stop-color="#fff" stop-opacity="0.12"/><stop offset="1" stop-color="#fff" stop-opacity="0"/></linearGradient></defs><style>text{font-family:'Segoe UI','Helvetica Neue',Helvetica,Arial,sans-serif}.mono{font-family:ui-monospace,'SF Mono','Cascadia Mono',Menlo,Consolas,monospace}.live{display:none}@media (prefers-reduced-motion:no-preference){.live{display:inline}.still{display:none}.aur{animation:aur 30s ease-in-out infinite}@keyframes aur{50%{transform:translate(-70px,30px)}}.shine{animation:shine 9.0s ease-in-out infinite}@keyframes shine{0%{transform:translateX(0) skewX(-16deg)}21.7%,100%{transform:translateX(836px) skewX(-16deg)}}}</style><clipPath id="frame"><rect width="600" height="1804" rx="30"/></clipPath><rect width="600" height="1804" rx="30" fill="url(#bg)"/><g clip-path="url(#frame)"><g class="aur"><circle cx="510" cy="180" r="300" fill="url(#au1)"/></g><circle cx="60" cy="1804" r="270" fill="url(#au2)"/><text x="32" y="52" font-size="16" fill="#C4B5FD" font-weight="800" letter-spacing="2.2">УСЛУГИ · ЗА КАКВО МОЖЕТЕ ДА МЕ</text><text x="32" y="74" font-size="16" fill="#C4B5FD" font-weight="800" letter-spacing="2.2">НАЕМЕТЕ</text><linearGradient id="sv0" x1="0" y1="0" x2="1" y2="1"><stop offset="0" stop-color="#22D3EE" stop-opacity=".2"/><stop offset=".55" stop-color="#0E0B2C" stop-opacity=".9"/><stop offset="1" stop-color="#8B5CF6" stop-opacity=".12"/></linearGradient><rect x="32.0" y="102" width="536" height="268" rx="24" fill="url(#sv0)" stroke="#22D3EE" stroke-opacity=".45"/><rect x="54.0" y="102" width="492" height="3" rx="1.5" fill="#22D3EE"/><path d="M66 154.4Q62.7 154.4 60.2 153.2Q57.8 151.9 56.4 149.6Q55.1 147.3 55.1 144.2Q55.1 141.2 56.4 138.9Q57.8 136.6 60.2 135.3Q62.7 134.1 66 134.1Q69.3 134.1 71.8 135.3Q74.3 136.6 75.6 138.9Q77 141.2 77 144.2Q77 147.3 75.6 149.6Q74.3 151.9 71.8 153.2Q69.3 154.4 66 154.4ZM66 150Q68.7 150 70.1 148.5Q71.6 147 71.6 144.2Q71.6 141.5 70.1 140Q68.7 138.5 66 138.5Q63.4 138.5 61.9 140Q60.4 141.5 60.4 144.2Q60.4 147 61.9 148.5Q63.4 150 66 150ZM89.6 134.5V154H84.3V139.1L78.4 140.2V136L85.7 134.5Z" fill="none" stroke="#22D3EE" stroke-width="1.4"/><path d="M74.8 186.8Q74.5 189.1 73.2 190.8Q71.9 192.5 69.8 193.4Q67.6 194.4 64.9 194.4Q61.9 194.4 59.6 193.2Q57.4 192.1 56.1 190.1Q54.9 188.1 54.9 185.4Q54.9 182.7 56.1 180.7Q57.4 178.6 59.6 177.5Q61.9 176.4 64.9 176.4Q67.6 176.4 69.8 177.3Q71.9 178.3 73.2 180Q74.5 181.7 74.8 184H70Q69.8 182.9 69.1 182.1Q68.4 181.3 67.4 180.9Q66.3 180.5 64.9 180.5Q63.3 180.5 62.1 181.1Q60.9 181.7 60.3 182.8Q59.7 183.9 59.7 185.4Q59.7 186.9 60.3 188Q60.9 189.1 62.1 189.7Q63.3 190.3 64.9 190.3Q66.3 190.3 67.4 189.9Q68.4 189.5 69.1 188.7Q69.8 187.9 70 186.8ZM88.6 194 88.3 191.3Q87.4 192.7 86.1 193.5Q84.6 194.4 82.7 194.4Q80.8 194.4 79.3 193.5Q77.9 192.6 77 191.1Q76.2 189.5 76.2 187.4Q76.2 185.4 77 183.8Q77.9 182.2 79.3 181.3Q80.8 180.5 82.7 180.5Q84.6 180.5 86.1 181.3Q87.4 182.1 88.3 183.5L88.6 180.9H93.5L92.7 187.4L93.5 194ZM81 187.4Q81 188.4 81.4 189.2Q81.8 189.9 82.5 190.4Q83.2 190.8 84.1 190.8Q85.1 190.8 85.9 190.4Q86.8 189.9 87.4 189.2Q88.1 188.4 88.4 187.4Q88.1 186.5 87.4 185.7Q86.8 184.9 85.9 184.5Q85.1 184.1 84.1 184.1Q83.2 184.1 82.5 184.5Q81.8 184.9 81.4 185.7Q81 186.5 81 187.4ZM95.8 194V180.9H100.4V189.6L106.3 180.9H112.3V194H107.7V185L101.6 194ZM103.9 179.8Q101.5 179.8 100 178.6Q98.6 177.4 98.3 175.3H101.8Q102 176.2 102.6 176.6Q103.1 177.1 103.9 177.1Q104.7 177.1 105.3 176.6Q105.8 176.2 106 175.3H109.6Q109.2 177.4 107.8 178.6Q106.3 179.8 103.9 179.8ZM113.9 180.9H128.6V184.4H123.6V194H118.9V184.4H113.9ZM138.1 194.4Q135.5 194.4 133.6 193.5Q131.8 192.6 130.7 191.1Q129.6 189.5 129.6 187.4Q129.6 185.4 130.7 183.8Q131.8 182.2 133.6 181.3Q135.5 180.5 138.1 180.5Q140.6 180.5 142.5 181.3Q144.4 182.2 145.4 183.8Q146.5 185.4 146.5 187.4Q146.5 189.5 145.4 191.1Q144.4 192.6 142.5 193.5Q140.6 194.4 138.1 194.4ZM138.1 190.9Q139.2 190.9 140 190.5Q140.8 190.1 141.3 189.3Q141.7 188.5 141.7 187.4Q141.7 186.3 141.3 185.6Q140.8 184.8 140 184.4Q139.2 184 138.1 184Q136.9 184 136.1 184.4Q135.3 184.8 134.8 185.6Q134.4 186.3 134.4 187.4Q134.4 188.5 134.8 189.3Q135.3 190.1 136.1 190.5Q136.9 190.9 138.1 190.9ZM148.1 194 149 187.4 148.1 180.9H158.8Q160.7 180.9 161.9 181.8Q163 182.6 163 184.2Q163 185.6 161.9 186.5Q161.4 186.8 160.9 187Q161.9 187.3 162.6 187.8Q163.8 188.7 163.8 190.3Q163.8 192 162.5 193Q161.3 194 159.1 194ZM152.9 191.1H157.6Q158.3 191.1 158.7 190.7Q159.1 190.4 159.1 189.8Q159.1 189.3 158.7 188.9Q158.3 188.5 157.4 188.5H153.3ZM153.2 186.1H156.9Q157.6 186.1 157.9 185.8Q158.3 185.5 158.3 184.9Q158.3 184.4 158 184.1Q157.6 183.8 156.9 183.8H152.9ZM173.5 194.4Q171.1 194.4 169.2 193.5Q167.3 192.6 166.2 191Q165.2 189.5 165.2 187.4Q165.2 185.3 166.2 183.8Q167.2 182.2 169 181.3Q170.8 180.5 173.1 180.5Q175.5 180.5 177.2 181.5Q178.8 182.5 179.7 184.4Q180.6 186.2 180.6 188.8H170.3Q170.4 189 170.5 189.1Q171 190 172.1 190.5Q173.2 190.9 174.8 190.9Q176.2 190.9 177.7 190.5Q179.1 190.2 180.3 189.5V192.5Q178.9 193.4 177.2 193.9Q175.5 194.4 173.5 194.4ZM170.1 185.9H176.3Q176.1 185.6 175.9 185.2Q175.5 184.5 174.9 184.2Q174.2 183.8 173.2 183.8Q172.2 183.8 171.5 184.2Q170.7 184.6 170.3 185.3Q170.2 185.6 170.1 185.9ZM188.3 194V180.9H193V189.6L198.9 180.9H204.9V194H200.3V185L194.2 194ZM221 194.4Q218.5 194.4 216.6 193.5Q214.7 192.6 213.6 191.1Q212.6 189.5 212.6 187.4Q212.6 185.4 213.6 183.8Q214.7 182.2 216.6 181.3Q218.5 180.5 221 180.5Q223.5 180.5 225.4 181.3Q227.3 182.2 228.4 183.8Q229.4 185.4 229.4 187.4Q229.4 189.5 228.4 191.1Q227.3 192.6 225.4 193.5Q223.5 194.4 221 194.4ZM221 190.9Q222.2 190.9 223 190.5Q223.8 190.1 224.2 189.3Q224.7 188.5 224.7 187.4Q224.7 186.3 224.2 185.6Q223.8 184.8 223 184.4Q222.2 184 221 184Q219.9 184 219 184.4Q218.2 184.8 217.8 185.6Q217.3 186.3 217.3 187.4Q217.3 188.5 217.8 189.3Q218.2 190.1 219 190.5Q219.9 190.9 221 190.9ZM231.4 180.9H236.1V185.5H242.3V180.9H247V194H242.3V189H236.1V194H231.4ZM251.8 180.9H266.1V194H261.4V184.4H256.3Q256.3 184.7 256.4 185Q256.4 186.1 256.4 187Q256.4 190.8 255.2 192.6Q254.1 194.3 251.4 194.3Q250.6 194.3 249.9 194.1Q249.2 194 248.6 193.6V190.3Q249 190.4 249.4 190.5Q249.8 190.6 250.1 190.6Q251.2 190.6 251.7 189.6Q252.2 188.6 252.2 186.3Q252.2 185.3 252.1 183.9Q252 182.5 251.8 180.9ZM280.5 194 280.2 191.3Q279.3 192.7 278 193.5Q276.5 194.4 274.6 194.4Q272.7 194.4 271.2 193.5Q269.8 192.6 268.9 191.1Q268.1 189.5 268.1 187.4Q268.1 185.4 268.9 183.8Q269.8 182.2 271.2 181.3Q272.7 180.5 274.6 180.5Q276.5 180.5 278 181.3Q279.3 182.1 280.2 183.5L280.5 180.9H285.4L284.6 187.4L285.4 194ZM272.9 187.4Q272.9 188.4 273.3 189.2Q273.7 189.9 274.4 190.4Q275.1 190.8 276 190.8Q277 190.8 277.8 190.4Q278.7 189.9 279.3 189.2Q280 188.4 280.3 187.4Q280 186.5 279.3 185.7Q278.7 184.9 277.8 184.5Q277 184.1 276 184.1Q275.1 184.1 274.4 184.5Q273.7 184.9 273.3 185.7Q272.9 186.5 272.9 187.4ZM287.7 194V180.9H292.3V189.6L298.2 180.9H304.2V194H299.6V185L293.5 194ZM295.8 179.8Q293.4 179.8 291.9 178.6Q290.5 177.4 290.1 175.3H293.7Q293.9 176.2 294.4 176.6Q295 177.1 295.8 177.1Q296.6 177.1 297.2 176.6Q297.7 176.2 297.8 175.3H301.5Q301.1 177.4 299.7 178.6Q298.2 179.8 295.8 179.8ZM306.8 180.9H311.5V185.5H317.7V180.9H322.4V194H317.7V189H311.5V194H306.8ZM339 194.4Q336.2 194.4 334.3 193.3Q332.3 192.3 331.3 190.4Q330.2 188.4 330.2 185.7Q330.2 181.6 332.5 179.3Q334.7 176.9 338.9 176.5Q340.6 176.4 341.8 176.3Q342.9 176.2 343.6 176.1Q344.3 176 344.8 175.9Q345.4 175.8 345.8 175.6V179.4Q345.3 179.6 344.5 179.8Q343.8 179.9 342.6 180Q341.5 180.1 339.8 180.2Q336.9 180.3 335.5 181.6Q334.2 183 334.1 185.4Q334.5 184.5 335.3 183.8Q336.2 182.9 337.5 182.5Q338.9 182 340.4 182Q342.4 182 343.9 182.8Q345.4 183.5 346.2 184.9Q347 186.2 347 188Q347 189.9 346 191.4Q345 192.8 343.2 193.6Q341.5 194.4 339 194.4ZM339.1 190.9Q340.1 190.9 340.8 190.6Q341.5 190.2 341.9 189.6Q342.3 188.9 342.3 188.1Q342.3 187.2 341.9 186.6Q341.5 186 340.8 185.6Q340.1 185.3 339.1 185.3Q337.8 185.3 336.7 186Q335.6 186.7 335.1 187.9Q335.4 189.3 336.5 190.1Q337.6 190.9 339.1 190.9ZM349 194V180.9H353.7V189.6L359.6 180.9H365.6V194H361V185L354.9 194ZM375.1 194.4Q372.8 194.4 371.1 193.8Q369.4 193.2 368.4 192.1Q367.4 191 367.4 189.5H371.9Q372 190.3 372.8 190.8Q373.7 191.2 375.1 191.2Q376.4 191.2 377.2 190.9Q377.9 190.5 377.9 189.8Q377.9 189.2 377.2 188.9Q376.6 188.7 375.2 188.7H372.9V186.1H375.1Q376.4 186.1 377 185.8Q377.6 185.5 377.6 184.9Q377.6 184.3 376.9 184Q376.2 183.7 375.1 183.7Q373.8 183.7 373 184.1Q372.2 184.5 372.1 185.2H367.6Q367.7 183.9 368.6 182.8Q369.5 181.8 371.2 181.1Q372.8 180.5 375.2 180.5Q377.4 180.5 378.9 181Q380.5 181.5 381.4 182.3Q382.3 183.2 382.3 184.3Q382.3 185.1 381.8 185.9Q381.2 186.6 380 187.1Q379.7 187.2 379.4 187.3Q380.4 187.4 381.1 187.8Q382.6 188.5 382.6 190.2Q382.6 191.4 381.7 192.3Q380.9 193.3 379.2 193.8Q377.5 194.4 375.1 194.4ZM384.6 180.9H389.3V185.5H395.6V180.9H400.2V194H395.6V189H389.3V194H384.6ZM410.5 194.4Q408.1 194.4 406.3 193.5Q404.4 192.6 403.3 191Q402.2 189.5 402.2 187.4Q402.2 185.3 403.3 183.8Q404.3 182.2 406.1 181.3Q407.9 180.5 410.2 180.5Q412.5 180.5 414.2 181.5Q415.9 182.5 416.8 184.4Q417.7 186.2 417.7 188.8H407.3Q407.4 189 407.5 189.1Q408.1 190 409.2 190.5Q410.3 190.9 411.9 190.9Q413.3 190.9 414.7 190.5Q416.2 190.2 417.4 189.5V192.5Q416 193.4 414.3 193.9Q412.5 194.4 410.5 194.4ZM407.1 185.9H413.3Q413.2 185.6 413 185.2Q412.6 184.5 411.9 184.2Q411.2 183.8 410.3 183.8Q409.3 183.8 408.5 184.2Q407.8 184.6 407.4 185.3Q407.2 185.6 407.1 185.9ZM435.4 188.5Q435.2 190.2 434.1 191.6Q433 192.9 431.2 193.6Q429.5 194.4 427.3 194.4Q424.9 194.4 423 193.5Q421.2 192.6 420.1 191.1Q419.1 189.5 419.1 187.4Q419.1 185.4 420.1 183.8Q421.2 182.2 423 181.4Q424.9 180.5 427.3 180.5Q429.5 180.5 431.2 181.2Q433 182 434.1 183.3Q435.2 184.6 435.4 186.4H430.7Q430.4 185.2 429.5 184.6Q428.6 184 427.3 184Q426.2 184 425.5 184.4Q424.7 184.8 424.3 185.5Q423.8 186.3 423.8 187.4Q423.8 188.5 424.3 189.3Q424.7 190.1 425.5 190.5Q426.2 190.9 427.3 190.9Q428.6 190.9 429.5 190.2Q430.5 189.6 430.7 188.5Z" fill="#F7F5FF" /><text x="54" y="231.9" font-size="16" fill="#DCD6FF">Фирмени сайтове, целеви страници, портфолиа, онлайн</text><text x="54" y="252.9" font-size="16" fill="#DCD6FF">магазини, интерфейси за резервации и обновяване на</text><text x="54" y="273.9" font-size="16" fill="#DCD6FF">съществуващи сайтове.</text><text x="54" y="348" font-size="14" fill="#22D3EE" font-weight="700">Адаптивен дизайн · UI/UX · Интеграции · Производителност</text><g class="live"><clipPath id="sc0"><rect x="32.0" y="102" width="536" height="268" rx="24"/></clipPath><g clip-path="url(#sc0)"><rect class="shine" style="animation-delay:0.0s" x="-128.0" y="62" width="110" height="348" fill="url(#shine)"/></g></g><linearGradient id="sv1" x1="0" y1="0" x2="1" y2="1"><stop offset="0" stop-color="#8B5CF6" stop-opacity=".2"/><stop offset=".55" stop-color="#0E0B2C" stop-opacity=".9"/><stop offset="1" stop-color="#F472B6" stop-opacity=".12"/></linearGradient><rect x="32.0" y="386" width="536" height="268" rx="24" fill="url(#sv1)" stroke="#8B5CF6" stroke-opacity=".45"/><rect x="54.0" y="386" width="492" height="3" rx="1.5" fill="#8B5CF6"/><path d="M66 438.4Q62.7 438.4 60.2 437.2Q57.8 435.9 56.4 433.6Q55.1 431.3 55.1 428.2Q55.1 425.2 56.4 422.9Q57.8 420.6 60.2 419.3Q62.7 418.1 66 418.1Q69.3 418.1 71.8 419.3Q74.3 420.6 75.6 422.9Q77 425.2 77 428.2Q77 431.3 75.6 433.6Q74.3 435.9 71.8 437.2Q69.3 438.4 66 438.4ZM66 434Q68.7 434 70.1 432.5Q71.6 431 71.6 428.2Q71.6 425.5 70.1 424Q68.7 422.5 66 422.5Q63.4 422.5 61.9 424Q60.4 425.5 60.4 428.2Q60.4 431 61.9 432.5Q63.4 434 66 434ZM78.9 425.5Q79.1 423.2 80.4 421.6Q81.8 419.9 84 419Q86.3 418.1 89.1 418.1Q91.8 418.1 93.8 418.9Q95.9 419.7 97 421.2Q98.1 422.6 98.1 424.6Q98.1 426 97.3 427.3Q96.5 428.6 94.8 429.8Q93.1 431.1 90.3 432.4L87.7 433.7H98.6V438H79.3V434.3L87.7 429.6Q89.7 428.4 90.8 427.7Q91.8 426.9 92.3 426.2Q92.7 425.6 92.7 424.9Q92.7 424.1 92.3 423.5Q91.9 422.9 91 422.6Q90.2 422.2 88.9 422.2Q87.4 422.2 86.4 422.7Q85.4 423.1 84.9 423.9Q84.4 424.6 84.3 425.5Z" fill="none" stroke="#8B5CF6" stroke-width="1.4"/><path d="M74.8 470.8Q74.5 473.1 73.2 474.8Q71.9 476.5 69.8 477.4Q67.6 478.4 64.9 478.4Q61.9 478.4 59.6 477.2Q57.4 476.1 56.1 474.1Q54.9 472.1 54.9 469.4Q54.9 466.7 56.1 464.7Q57.4 462.6 59.6 461.5Q61.9 460.4 64.9 460.4Q67.6 460.4 69.8 461.3Q71.9 462.3 73.2 464Q74.5 465.7 74.8 468H70Q69.8 466.9 69.1 466.1Q68.4 465.3 67.4 464.9Q66.3 464.5 64.9 464.5Q63.3 464.5 62.1 465.1Q60.9 465.7 60.3 466.8Q59.7 467.9 59.7 469.4Q59.7 470.9 60.3 472Q60.9 473.1 62.1 473.7Q63.3 474.3 64.9 474.3Q66.3 474.3 67.4 473.9Q68.4 473.5 69.1 472.7Q69.8 471.9 70 470.8ZM84.6 478.4Q82.1 478.4 80.2 477.5Q78.3 476.6 77.2 475.1Q76.2 473.5 76.2 471.4Q76.2 469.4 77.2 467.8Q78.3 466.2 80.2 465.4Q82.1 464.5 84.6 464.5Q87.1 464.5 89 465.4Q90.9 466.2 91.9 467.8Q93 469.4 93 471.4Q93 473.5 91.9 475.1Q90.9 476.6 89 477.5Q87.1 478.4 84.6 478.4ZM84.6 474.9Q85.7 474.9 86.6 474.5Q87.4 474.1 87.8 473.3Q88.2 472.5 88.2 471.4Q88.2 470.3 87.8 469.6Q87.4 468.8 86.6 468.4Q85.7 468 84.6 468Q83.4 468 82.6 468.4Q81.8 468.8 81.3 469.6Q80.9 470.3 80.9 471.4Q80.9 472.5 81.3 473.3Q81.8 474.1 82.6 474.5Q83.4 474.9 84.6 474.9ZM106.1 481.8V475.4Q105.3 476.8 104 477.5Q102.6 478.4 100.8 478.4Q98.9 478.4 97.5 477.5Q96 476.6 95.2 475.1Q94.4 473.5 94.4 471.4Q94.4 469.4 95.2 467.8Q96 466.2 97.5 465.4Q98.9 464.5 100.8 464.5Q102.6 464.5 104 465.3Q105.3 466.1 106.1 467.4V460.3H110.8V467.4Q111.6 466.1 112.9 465.3Q114.3 464.5 116.1 464.5Q118 464.5 119.5 465.4Q120.9 466.2 121.7 467.8Q122.4 469.4 122.4 471.4Q122.4 473.5 121.7 475.1Q120.9 476.6 119.4 477.5Q118 478.4 116.1 478.4Q114.3 478.4 112.9 477.5Q111.6 476.8 110.8 475.4V481.8ZM117.7 471.4Q117.7 470.5 117.3 469.7Q117 468.9 116.3 468.5Q115.6 468.1 114.7 468.1Q113.3 468.1 112.2 469Q111.1 469.9 110.6 471.4Q111.1 472.9 112.2 473.8Q113.3 474.8 114.7 474.8Q115.6 474.8 116.3 474.4Q117 473.9 117.3 473.2Q117.7 472.4 117.7 471.4ZM99.2 471.4Q99.2 472.4 99.6 473.2Q99.9 473.9 100.6 474.4Q101.3 474.8 102.2 474.8Q103.6 474.8 104.7 473.8Q105.8 472.9 106.3 471.4Q105.8 469.9 104.7 469Q103.6 468.1 102.2 468.1Q101.3 468.1 100.6 468.5Q99.9 468.9 99.6 469.7Q99.2 470.5 99.2 471.4ZM123.5 464.9H138.2V468.4H133.2V478H128.5V468.4H123.5ZM144.2 482.2Q142.7 482.2 141.6 481.8Q140.5 481.4 139.4 480.7V477.4Q140.5 478.1 141.4 478.4Q142.4 478.7 143.5 478.7Q144.4 478.7 145.2 478.3Q145.9 477.9 146.4 476.8V476.8H144.3L138.7 464.9H143.9L147.6 473.8L151.4 464.9H156.4L150.1 478.3Q149.4 479.7 148.5 480.6Q147.5 481.4 146.4 481.8Q145.3 482.2 144.2 482.2ZM165.4 478.4Q163 478.4 161.1 477.5Q159.3 476.6 158.2 475Q157.1 473.5 157.1 471.4Q157.1 469.3 158.1 467.8Q159.2 466.2 161 465.4Q162.8 464.5 165.1 464.5Q167.4 464.5 169.1 465.5Q170.8 466.5 171.7 468.4Q172.6 470.2 172.6 472.8H162.2Q162.3 473 162.4 473.1Q163 474 164.1 474.5Q165.2 474.9 166.7 474.9Q168.2 474.9 169.6 474.5Q171.1 474.2 172.2 473.5V476.5Q170.9 477.4 169.1 477.9Q167.4 478.4 165.4 478.4ZM162 469.9H168.2Q168.1 469.6 167.9 469.2Q167.5 468.5 166.8 468.2Q166.1 467.8 165.2 467.8Q164.1 467.8 163.4 468.2Q162.7 468.6 162.3 469.3Q162.1 469.6 162 469.9ZM174.6 464.9H179.3V467.4Q180.2 466.1 181.5 465.3Q183 464.5 184.8 464.5Q186.8 464.5 188.2 465.4Q189.7 466.2 190.5 467.8Q191.3 469.4 191.3 471.4Q191.3 473.5 190.5 475.1Q189.7 476.6 188.2 477.5Q186.8 478.4 184.8 478.4Q183 478.4 181.5 477.5Q180.2 476.7 179.3 475.4V481.8H174.6ZM186.6 471.4Q186.6 470.5 186.2 469.7Q185.8 468.9 185 468.5Q184.3 468.1 183.4 468.1Q182.5 468.1 181.6 468.5Q180.8 468.9 180.1 469.7Q179.5 470.5 179.1 471.4Q179.5 472.4 180.1 473.2Q180.8 473.9 181.6 474.4Q182.5 474.8 183.4 474.8Q184.3 474.8 185 474.4Q185.8 473.9 186.2 473.2Q186.6 472.4 186.6 471.4ZM199 478V464.9H203.7V473.6L209.5 464.9H215.6V478H211V469L204.9 478ZM239.4 464.9V478H234.7V468.4H228.6V478H223.9V464.9ZM244.2 464.9H258.5V478H253.8V468.4H248.7Q248.7 468.7 248.7 469Q248.8 470.1 248.8 471Q248.8 474.8 247.6 476.6Q246.4 478.3 243.8 478.3Q243 478.3 242.3 478.1Q241.6 478 241 477.6V474.3Q241.4 474.4 241.8 474.5Q242.2 474.6 242.5 474.6Q243.6 474.6 244.1 473.6Q244.6 472.6 244.6 470.3Q244.6 469.3 244.5 467.9Q244.4 466.5 244.2 464.9ZM272.9 478 272.6 475.3Q271.7 476.7 270.3 477.5Q268.9 478.4 267 478.4Q265.1 478.4 263.6 477.5Q262.2 476.6 261.3 475.1Q260.5 473.5 260.5 471.4Q260.5 469.4 261.3 467.8Q262.2 466.2 263.6 465.4Q265.1 464.5 267 464.5Q268.9 464.5 270.3 465.3Q271.7 466.1 272.6 467.5L272.9 464.9H277.8L277 471.4L277.8 478ZM265.3 471.4Q265.3 472.4 265.7 473.2Q266.1 473.9 266.8 474.4Q267.5 474.8 268.4 474.8Q269.4 474.8 270.2 474.4Q271.1 473.9 271.7 473.2Q272.4 472.4 272.7 471.4Q272.4 470.5 271.7 469.7Q271.1 468.9 270.2 468.5Q269.4 468.1 268.4 468.1Q267.5 468.1 266.8 468.5Q266.1 468.9 265.7 469.7Q265.3 470.5 265.3 471.4ZM279.1 464.9H293.8V468.4H288.8V478H284.1V468.4H279.1ZM306.5 481.8V475.4Q305.7 476.8 304.4 477.5Q303 478.4 301.2 478.4Q299.3 478.4 297.9 477.5Q296.4 476.6 295.6 475.1Q294.8 473.5 294.8 471.4Q294.8 469.4 295.6 467.8Q296.4 466.2 297.9 465.4Q299.3 464.5 301.2 464.5Q303 464.5 304.4 465.3Q305.7 466.1 306.5 467.4V460.3H311.2V467.4Q312 466.1 313.3 465.3Q314.7 464.5 316.5 464.5Q318.4 464.5 319.9 465.4Q321.3 466.2 322.1 467.8Q322.8 469.4 322.8 471.4Q322.8 473.5 322.1 475.1Q321.3 476.6 319.8 477.5Q318.4 478.4 316.5 478.4Q314.7 478.4 313.3 477.5Q312 476.8 311.2 475.4V481.8ZM318.1 471.4Q318.1 470.5 317.7 469.7Q317.4 468.9 316.7 468.5Q316 468.1 315.1 468.1Q313.7 468.1 312.6 469Q311.5 469.9 311 471.4Q311.5 472.9 312.6 473.8Q313.7 474.8 315.1 474.8Q316 474.8 316.7 474.4Q317.4 473.9 317.7 473.2Q318.1 472.4 318.1 471.4ZM299.6 471.4Q299.6 472.4 300 473.2Q300.3 473.9 301 474.4Q301.7 474.8 302.6 474.8Q304 474.8 305.1 473.8Q306.2 472.9 306.7 471.4Q306.2 469.9 305.1 469Q304 468.1 302.6 468.1Q301.7 468.1 301 468.5Q300.3 468.9 300 469.7Q299.6 470.5 299.6 471.4ZM332.7 478.4Q330.2 478.4 328.3 477.5Q326.4 476.6 325.4 475.1Q324.3 473.5 324.3 471.4Q324.3 469.4 325.4 467.8Q326.4 466.2 328.3 465.4Q330.2 464.5 332.7 464.5Q335.2 464.5 337.1 465.4Q339 466.2 340.1 467.8Q341.1 469.4 341.1 471.4Q341.1 473.5 340.1 475.1Q339 476.6 337.1 477.5Q335.2 478.4 332.7 478.4ZM332.7 474.9Q333.9 474.9 334.7 474.5Q335.5 474.1 335.9 473.3Q336.4 472.5 336.4 471.4Q336.4 470.3 335.9 469.6Q335.5 468.8 334.7 468.4Q333.9 468 332.7 468Q331.6 468 330.7 468.4Q329.9 468.8 329.5 469.6Q329 470.3 329 471.4Q329 472.5 329.5 473.3Q329.9 474.1 330.7 474.5Q331.6 474.9 332.7 474.9ZM343.1 464.9H347.8V467.4Q348.7 466.1 350 465.3Q351.5 464.5 353.3 464.5Q355.3 464.5 356.7 465.4Q358.2 466.2 359 467.8Q359.8 469.4 359.8 471.4Q359.8 473.5 359 475.1Q358.2 476.6 356.7 477.5Q355.3 478.4 353.3 478.4Q351.5 478.4 350 477.5Q348.7 476.7 347.8 475.4V481.8H343.1ZM355.1 471.4Q355.1 470.5 354.7 469.7Q354.3 468.9 353.6 468.5Q352.8 468.1 351.9 468.1Q351 468.1 350.1 468.5Q349.3 468.9 348.6 469.7Q348 470.5 347.6 471.4Q348 472.4 348.6 473.2Q349.3 473.9 350.1 474.4Q351 474.8 351.9 474.8Q352.8 474.8 353.6 474.4Q354.3 473.9 354.7 473.2Q355.1 472.4 355.1 471.4ZM361.9 478V464.9H368.9L372.3 473.7L375.7 464.9H382.7V478H378.3V468.5L374.5 478H370.2L366.3 468.5V478ZM385.3 478V464.9H390V473.6L395.8 464.9H401.9V478H397.3V469L391.2 478Z" fill="#F7F5FF" /><text x="54" y="515.9" font-size="16" fill="#DCD6FF">Уеб и настолни приложения, табла, административни</text><text x="54" y="536.9" font-size="16" fill="#DCD6FF">панели, клиентски портали и вътрешни бизнес</text><text x="54" y="557.9" font-size="16" fill="#DCD6FF">инструменти.</text><text x="54" y="632" font-size="14" fill="#8B5CF6" font-weight="700">Интерфейс · Сървърна логика · Бази данни · Вход</text><g class="live"><clipPath id="sc1"><rect x="32.0" y="386" width="536" height="268" rx="24"/></clipPath><g clip-path="url(#sc1)"><rect class="shine" style="animation-delay:1.5s" x="-128.0" y="346" width="110" height="348" fill="url(#shine)"/></g></g><linearGradient id="sv2" x1="0" y1="0" x2="1" y2="1"><stop offset="0" stop-color="#7C8BFF" stop-opacity=".2"/><stop offset=".55" stop-color="#0E0B2C" stop-opacity=".9"/><stop offset="1" stop-color="#22D3EE" stop-opacity=".12"/></linearGradient><rect x="32.0" y="670" width="536" height="268" rx="24" fill="url(#sv2)" stroke="#7C8BFF" stroke-opacity=".45"/><rect x="54.0" y="670" width="492" height="3" rx="1.5" fill="#7C8BFF"/><path d="M66 722.4Q62.7 722.4 60.2 721.2Q57.8 719.9 56.4 717.6Q55.1 715.3 55.1 712.2Q55.1 709.2 56.4 706.9Q57.8 704.6 60.2 703.3Q62.7 702.1 66 702.1Q69.3 702.1 71.8 703.3Q74.3 704.6 75.6 706.9Q77 709.2 77 712.2Q77 715.3 75.6 717.6Q74.3 719.9 71.8 721.2Q69.3 722.4 66 722.4ZM66 718Q68.7 718 70.1 716.5Q71.6 715 71.6 712.2Q71.6 709.5 70.1 708Q68.7 706.5 66 706.5Q63.4 706.5 61.9 708Q60.4 709.5 60.4 712.2Q60.4 715 61.9 716.5Q63.4 718 66 718ZM79.3 708.8Q79.4 706.9 80.6 705.4Q81.8 703.9 84 703Q86.2 702.1 89.4 702.1Q92.1 702.1 94.1 702.8Q96.1 703.4 97.2 704.7Q98.3 705.9 98.3 707.5Q98.3 708.8 97.5 709.9Q96.7 711 95 711.7Q94.6 711.8 94.2 711.9Q94.6 712 94.9 712.1Q96.8 712.6 97.7 713.6Q98.7 714.7 98.7 716.3Q98.7 718.1 97.6 719.5Q96.4 720.9 94.3 721.6Q92.1 722.4 88.9 722.4Q85.9 722.4 83.6 721.6Q81.4 720.8 80.1 719.2Q78.9 717.7 78.8 715.6H84.1Q84.3 716.9 85.5 717.6Q86.7 718.3 88.9 718.3Q91 718.3 92.1 717.7Q93.2 717 93.2 715.9Q93.2 715.3 92.9 714.8Q92.5 714.4 91.6 714.2Q90.8 713.9 89.2 713.9H85.8V710.3H89.2Q91.2 710.3 92.1 709.8Q92.9 709.2 92.9 708.3Q92.9 707.3 91.9 706.8Q91 706.2 89.1 706.2Q87 706.2 86 706.9Q84.9 707.6 84.7 708.8Z" fill="none" stroke="#7C8BFF" stroke-width="1.4"/><path d="M64.2 744.8Q67.3 744.8 69.6 745.8Q71.9 746.9 73.2 748.8Q74.4 750.8 74.4 753.4Q74.4 756 73.2 757.9Q71.9 759.9 69.6 760.9Q67.3 762 64.2 762H55.6V744.8ZM60.3 757.8H64.6Q66.1 757.8 67.3 757.2Q68.4 756.7 69 755.7Q69.6 754.7 69.6 753.4Q69.6 752 69 751Q68.4 750.1 67.3 749.5Q66.1 749 64.6 749H60.3ZM76.6 748.7 79 749.1 81.3 748.7V762H76.6ZM78.9 747.6Q77.7 747.6 77 747Q76.2 746.4 76.2 745.3Q76.2 744.3 77 743.6Q77.7 743 78.9 743Q80.2 743 80.9 743.6Q81.7 744.3 81.7 745.3Q81.7 746.4 80.9 747Q80.2 747.6 78.9 747.6ZM99.1 757.7Q99.1 759.2 98.2 760.3Q97.3 761.3 95.6 761.8Q93.9 762.4 91.5 762.4Q89 762.4 87.2 761.8Q85.3 761.2 84.3 760.1Q83.2 759 83.2 757.6H87.9Q88.1 758.1 88.6 758.5Q89 758.9 89.8 759.1Q90.6 759.3 91.7 759.3Q93.1 759.3 93.8 759Q94.5 758.7 94.5 758.2Q94.5 757.7 94 757.5Q93.4 757.3 92.1 757.2L89.8 757Q87.4 756.8 86.1 756.3Q84.7 755.7 84.1 754.9Q83.5 754 83.5 752.9Q83.5 751.4 84.4 750.4Q85.4 749.5 87 749Q88.7 748.5 90.9 748.5Q93.1 748.5 94.9 749.1Q96.6 749.6 97.6 750.6Q98.7 751.7 98.8 753.1H94.1Q94 752.6 93.6 752.3Q93.2 751.9 92.5 751.7Q91.8 751.4 90.7 751.4Q89.4 751.4 88.8 751.7Q88.1 752 88.1 752.5Q88.1 752.9 88.5 753.1Q88.9 753.4 90 753.4L93.1 753.7Q95.4 753.8 96.7 754.3Q98 754.8 98.6 755.7Q99.1 756.5 99.1 757.7ZM116.7 756.5Q116.6 758.2 115.5 759.6Q114.4 760.9 112.6 761.6Q110.8 762.4 108.6 762.4Q106.2 762.4 104.4 761.5Q102.6 760.6 101.5 759.1Q100.5 757.5 100.5 755.4Q100.5 753.4 101.5 751.8Q102.6 750.2 104.4 749.4Q106.2 748.5 108.6 748.5Q110.8 748.5 112.6 749.2Q114.4 750 115.5 751.3Q116.6 752.6 116.7 754.4H112.1Q111.8 753.2 110.9 752.6Q110 752 108.6 752Q107.6 752 106.8 752.4Q106.1 752.8 105.6 753.5Q105.2 754.3 105.2 755.4Q105.2 756.5 105.6 757.3Q106.1 758.1 106.8 758.5Q107.6 758.9 108.6 758.9Q110 758.9 110.9 758.2Q111.8 757.6 112.1 756.5ZM126.4 762.4Q123.9 762.4 122 761.5Q120.1 760.6 119.1 759.1Q118 757.5 118 755.4Q118 753.4 119.1 751.8Q120.1 750.2 122 749.4Q123.9 748.5 126.4 748.5Q128.9 748.5 130.8 749.4Q132.7 750.2 133.8 751.8Q134.8 753.4 134.8 755.4Q134.8 757.5 133.8 759.1Q132.7 760.6 130.8 761.5Q128.9 762.4 126.4 762.4ZM126.4 758.9Q127.6 758.9 128.4 758.5Q129.2 758.1 129.6 757.3Q130.1 756.5 130.1 755.4Q130.1 754.3 129.6 753.6Q129.2 752.8 128.4 752.4Q127.6 752 126.4 752Q125.3 752 124.4 752.4Q123.6 752.8 123.2 753.6Q122.7 754.3 122.7 755.4Q122.7 756.5 123.2 757.3Q123.6 758.1 124.4 758.5Q125.3 758.9 126.4 758.9ZM136.2 748.9H141L141.6 752.4Q141.9 751.4 142.4 750.6Q143.1 749.6 144 749Q144.9 748.5 146.3 748.5Q146.7 748.5 147.1 748.5Q147.5 748.6 147.9 748.7V752.7Q147.2 752.5 146.6 752.5Q146 752.4 145.5 752.4Q144.5 752.4 143.7 752.8Q142.8 753.2 142.3 754.1Q141.8 755.1 141.8 756.6V762H137.1V753.3ZM161.5 762 161.2 759.2Q160.2 760.7 158.8 761.5Q157.4 762.4 155.5 762.4Q153.6 762.4 152.1 761.5Q150.6 760.6 149.8 759.1Q149 757.5 149 755.4Q149 753.4 149.8 751.8Q150.6 750.2 152.1 749.4Q153.6 748.5 155.5 748.5Q157.4 748.5 158.8 749.3Q160.2 750.2 161.1 751.6L162 744.3H166.9L165.5 755.1L166.4 762ZM153.8 755.4Q153.8 756.4 154.2 757.2Q154.6 757.9 155.3 758.4Q156 758.8 156.9 758.8Q157.9 758.8 158.7 758.4Q159.6 757.9 160.2 757.2Q160.9 756.4 161.2 755.4Q160.9 754.5 160.2 753.7Q159.6 752.9 158.7 752.5Q157.9 752.1 156.9 752.1Q156 752.1 155.3 752.5Q154.6 752.9 154.2 753.7Q153.8 754.5 153.8 755.4ZM182.6 762.4Q179.9 762.4 177.9 761.3Q175.9 760.3 174.9 758.4Q173.8 756.4 173.8 753.7Q173.8 749.6 176.1 747.3Q178.3 744.9 182.5 744.5Q184.2 744.4 185.4 744.3Q186.5 744.2 187.2 744.1Q188 744 188.5 743.9Q189 743.8 189.5 743.6V747.4Q188.9 747.6 188.2 747.8Q187.4 747.9 186.3 748Q185.1 748.1 183.4 748.2Q180.5 748.3 179.1 749.6Q177.8 751 177.7 753.4Q178.2 752.5 178.9 751.8Q179.9 750.9 181.2 750.5Q182.5 750 184 750Q186 750 187.5 750.8Q189 751.5 189.8 752.9Q190.7 754.2 190.7 756Q190.7 757.9 189.7 759.4Q188.7 760.8 186.9 761.6Q185.1 762.4 182.6 762.4ZM182.8 758.9Q183.7 758.9 184.4 758.5Q185.1 758.2 185.5 757.6Q185.9 756.9 185.9 756.1Q185.9 755.2 185.5 754.6Q185.1 754 184.4 753.6Q183.7 753.3 182.8 753.3Q181.4 753.3 180.3 754Q179.2 754.7 178.7 755.9Q179 757.3 180.1 758.1Q181.2 758.9 182.8 758.9ZM200.5 762.4Q198 762.4 196.1 761.5Q194.2 760.6 193.1 759.1Q192.1 757.5 192.1 755.4Q192.1 753.4 193.1 751.8Q194.2 750.2 196.1 749.4Q198 748.5 200.5 748.5Q203 748.5 204.9 749.4Q206.8 750.2 207.8 751.8Q208.9 753.4 208.9 755.4Q208.9 757.5 207.8 759.1Q206.8 760.6 204.9 761.5Q203 762.4 200.5 762.4ZM200.5 758.9Q201.6 758.9 202.5 758.5Q203.3 758.1 203.7 757.3Q204.1 756.5 204.1 755.4Q204.1 754.3 203.7 753.6Q203.3 752.8 202.5 752.4Q201.6 752 200.5 752Q199.3 752 198.5 752.4Q197.7 752.8 197.2 753.6Q196.8 754.3 196.8 755.4Q196.8 756.5 197.2 757.3Q197.7 758.1 198.5 758.5Q199.3 758.9 200.5 758.9ZM209.9 748.9H224.6V752.4H219.6V762H214.9V752.4H209.9ZM234 762.4Q231.5 762.4 229.6 761.5Q227.7 760.6 226.7 759.1Q225.6 757.5 225.6 755.4Q225.6 753.4 226.7 751.8Q227.7 750.2 229.6 749.4Q231.5 748.5 234 748.5Q236.6 748.5 238.4 749.4Q240.3 750.2 241.4 751.8Q242.5 753.4 242.5 755.4Q242.5 757.5 241.4 759.1Q240.3 760.6 238.4 761.5Q236.6 762.4 234 762.4ZM234 758.9Q235.2 758.9 236 758.5Q236.8 758.1 237.3 757.3Q237.7 756.5 237.7 755.4Q237.7 754.3 237.3 753.6Q236.8 752.8 236 752.4Q235.2 752 234 752Q232.9 752 232.1 752.4Q231.2 752.8 230.8 753.6Q230.4 754.3 230.4 755.4Q230.4 756.5 230.8 757.3Q231.2 758.1 232.1 758.5Q232.9 758.9 234 758.9ZM244.1 762 244.9 755.4 244.1 748.9H254.8Q256.7 748.9 257.8 749.8Q259 750.6 259 752.2Q259 753.6 257.8 754.5Q257.4 754.8 256.8 755Q257.9 755.3 258.6 755.8Q259.8 756.7 259.8 758.3Q259.8 760 258.5 761Q257.3 762 255.1 762ZM248.9 759.1H253.5Q254.3 759.1 254.7 758.7Q255.1 758.4 255.1 757.8Q255.1 757.3 254.7 756.9Q254.3 756.5 253.4 756.5H249.2ZM249.2 754.1H252.8Q253.5 754.1 253.9 753.8Q254.3 753.5 254.3 752.9Q254.3 752.4 254 752.1Q253.6 751.8 252.9 751.8H248.9ZM269.4 762.4Q267 762.4 265.2 761.5Q263.3 760.6 262.2 759Q261.1 757.5 261.1 755.4Q261.1 753.3 262.2 751.8Q263.2 750.2 265 749.4Q266.8 748.5 269.1 748.5Q271.5 748.5 273.1 749.5Q274.8 750.5 275.7 752.4Q276.6 754.2 276.6 756.8H266.2Q266.3 757 266.5 757.1Q267 758 268.1 758.5Q269.2 758.9 270.8 758.9Q272.2 758.9 273.7 758.5Q275.1 758.2 276.3 757.5V760.5Q274.9 761.4 273.2 761.9Q271.4 762.4 269.4 762.4ZM266 754H272.2Q272.1 753.6 271.9 753.2Q271.5 752.5 270.8 752.2Q270.2 751.8 269.2 751.8Q268.2 751.8 267.4 752.2Q266.7 752.6 266.3 753.3Q266.1 753.6 266 754ZM284.3 762V748.9H289V757.6L294.8 748.9H300.9V762H296.2V753L290.2 762ZM317 762.4Q314.5 762.4 312.6 761.5Q310.7 760.6 309.6 759.1Q308.6 757.5 308.6 755.4Q308.6 753.4 309.6 751.8Q310.7 750.2 312.6 749.4Q314.5 748.5 317 748.5Q319.5 748.5 321.4 749.4Q323.3 750.2 324.3 751.8Q325.4 753.4 325.4 755.4Q325.4 757.5 324.3 759.1Q323.3 760.6 321.4 761.5Q319.5 762.4 317 762.4ZM317 758.9Q318.1 758.9 318.9 758.5Q319.8 758.1 320.2 757.3Q320.6 756.5 320.6 755.4Q320.6 754.3 320.2 753.6Q319.8 752.8 318.9 752.4Q318.1 752 317 752Q315.8 752 315 752.4Q314.2 752.8 313.7 753.6Q313.3 754.3 313.3 755.4Q313.3 756.5 313.7 757.3Q314.2 758.1 315 758.5Q315.8 758.9 317 758.9ZM335.7 762.4Q332.9 762.4 331 761.3Q329 760.3 328 758.4Q326.9 756.4 326.9 753.7Q326.9 749.6 329.2 747.3Q331.4 744.9 335.6 744.5Q337.3 744.4 338.5 744.3Q339.6 744.2 340.3 744.1Q341 744 341.6 743.9Q342.1 743.8 342.6 743.6V747.4Q342 747.6 341.2 747.8Q340.5 747.9 339.3 748Q338.2 748.1 336.5 748.2Q333.6 748.3 332.2 749.6Q330.9 751 330.8 753.4Q331.2 752.5 332 751.8Q332.9 750.9 334.3 750.5Q335.6 750 337.1 750Q339.1 750 340.6 750.8Q342.1 751.5 342.9 752.9Q343.8 754.2 343.8 756Q343.8 757.9 342.8 759.4Q341.8 760.8 340 761.6Q338.2 762.4 335.7 762.4ZM335.8 758.9Q336.8 758.9 337.5 758.5Q338.2 758.2 338.6 757.6Q339 756.9 339 756.1Q339 755.2 338.6 754.6Q338.2 754 337.5 753.6Q336.8 753.3 335.8 753.3Q334.5 753.3 333.4 754Q332.3 754.7 331.8 755.9Q332.1 757.3 333.2 758.1Q334.3 758.9 335.8 758.9ZM370.2 748.9V758.5H372.5V765.2H368.5V762H345.8V748.9H350.5V758.5H355.6V748.9H360.3V758.5H365.4V748.9ZM374.4 748.9H379.1V753.5H385.3V748.9H390V762H385.3V757H379.1V762H374.4ZM400.4 762.4Q397.9 762.4 396 761.5Q394.1 760.6 393.1 759.1Q392 757.5 392 755.4Q392 753.4 393.1 751.8Q394.1 750.2 396 749.4Q397.9 748.5 400.4 748.5Q402.9 748.5 404.8 749.4Q406.7 750.2 407.8 751.8Q408.8 753.4 408.8 755.4Q408.8 757.5 407.8 759.1Q406.7 760.6 404.8 761.5Q402.9 762.4 400.4 762.4ZM400.4 758.9Q401.6 758.9 402.4 758.5Q403.2 758.1 403.6 757.3Q404.1 756.5 404.1 755.4Q404.1 754.3 403.6 753.6Q403.2 752.8 402.4 752.4Q401.6 752 400.4 752Q399.3 752 398.4 752.4Q397.6 752.8 397.2 753.6Q396.7 754.3 396.7 755.4Q396.7 756.5 397.2 757.3Q397.6 758.1 398.4 758.5Q399.3 758.9 400.4 758.9ZM426.5 756.5Q426.3 758.2 425.2 759.6Q424.1 760.9 422.3 761.6Q420.6 762.4 418.4 762.4Q416 762.4 414.1 761.5Q412.3 760.6 411.3 759.1Q410.2 757.5 410.2 755.4Q410.2 753.4 411.3 751.8Q412.3 750.2 414.1 749.4Q416 748.5 418.4 748.5Q420.6 748.5 422.3 749.2Q424.1 750 425.2 751.3Q426.3 752.6 426.5 754.4H421.8Q421.6 753.2 420.6 752.6Q419.7 752 418.4 752Q417.4 752 416.6 752.4Q415.8 752.8 415.4 753.5Q415 754.3 415 755.4Q415 756.5 415.4 757.3Q415.8 758.1 416.6 758.5Q417.4 758.9 418.4 758.9Q419.7 758.9 420.7 758.2Q421.6 757.6 421.8 756.5ZM427.4 748.9H442.1V752.4H437.1V762H432.4V752.4H427.4ZM443.7 762V748.9H448.3V757.6L454.2 748.9H460.2V762H455.6V753L449.6 762Z" fill="#F7F5FF" /><text x="54" y="799.9" font-size="16" fill="#DCD6FF">Команди, тикети, модерация, роли, известия, дневници</text><text x="54" y="820.9" font-size="16" fill="#DCD6FF">на събитията и свързани административни табла.</text><text x="54" y="916" font-size="14" fill="#7C8BFF" font-weight="700">Ботове · API · Автоматизация · Сървърни интеграции</text><g class="live"><clipPath id="sc2"><rect x="32.0" y="670" width="536" height="268" rx="24"/></clipPath><g clip-path="url(#sc2)"><rect class="shine" style="animation-delay:3.0s" x="-128.0" y="630" width="110" height="348" fill="url(#shine)"/></g></g><linearGradient id="sv3" x1="0" y1="0" x2="1" y2="1"><stop offset="0" stop-color="#F472B6" stop-opacity=".2"/><stop offset=".55" stop-color="#0E0B2C" stop-opacity=".9"/><stop offset="1" stop-color="#FBBF24" stop-opacity=".12"/></linearGradient><rect x="32.0" y="954" width="536" height="268" rx="24" fill="url(#sv3)" stroke="#F472B6" stroke-opacity=".45"/><rect x="54.0" y="954" width="492" height="3" rx="1.5" fill="#F472B6"/><path d="M66 1006.4Q62.7 1006.4 60.2 1005.2Q57.8 1003.9 56.4 1001.6Q55.1 999.3 55.1 996.2Q55.1 993.2 56.4 990.9Q57.8 988.6 60.2 987.3Q62.7 986.1 66 986.1Q69.3 986.1 71.8 987.3Q74.3 988.6 75.6 990.9Q77 993.2 77 996.2Q77 999.3 75.6 1001.6Q74.3 1003.9 71.8 1005.2Q69.3 1006.4 66 1006.4ZM66 1002Q68.7 1002 70.1 1000.5Q71.6 999 71.6 996.2Q71.6 993.5 70.1 992Q68.7 990.5 66 990.5Q63.4 990.5 61.9 992Q60.4 993.5 60.4 996.2Q60.4 999 61.9 1000.5Q63.4 1002 66 1002ZM96.5 986.5V998.4H99.6V1002.4H96.5V1006H91.1V1002.4H78.7V998.6L89.6 986.5ZM91.1 998.4V990.7L84.2 998.4Z" fill="none" stroke="#F472B6" stroke-width="1.4"/><path d="M55.6 1046V1028.8H60.3V1041.3L68.8 1028.8H75V1046H70.3V1033.3L61.7 1046ZM89.4 1032.9V1036.4H82.6V1046H77.9V1032.9ZM90.9 1032.9H95.7V1035.4Q96.5 1034.1 97.8 1033.3Q99.3 1032.5 101.2 1032.5Q103.1 1032.5 104.6 1033.3Q106 1034.2 106.8 1035.8Q107.7 1037.4 107.7 1039.4Q107.7 1041.5 106.8 1043.1Q106 1044.6 104.6 1045.5Q103.1 1046.4 101.2 1046.4Q99.3 1046.4 97.8 1045.5Q96.5 1044.7 95.7 1043.4V1049.8H90.9ZM102.9 1039.4Q102.9 1038.5 102.5 1037.7Q102.1 1036.9 101.4 1036.5Q100.7 1036.1 99.7 1036.1Q98.8 1036.1 98 1036.5Q97.1 1036.9 96.5 1037.7Q95.8 1038.5 95.5 1039.4Q95.8 1040.4 96.5 1041.2Q97.1 1041.9 98 1042.4Q98.8 1042.8 99.7 1042.8Q100.7 1042.8 101.4 1042.4Q102.1 1041.9 102.5 1041.2Q102.9 1040.4 102.9 1039.4ZM109.7 1046V1032.9H114.3V1041.6L120.2 1032.9H126.2V1046H121.6V1037L115.5 1046ZM134.5 1046V1032.9H139.2V1041.6L145 1032.9H151.1V1046H146.4V1037L140.4 1046ZM175 1028.8V1032.8H164.4V1035.8H174.5V1039.8H164.4V1046H159.7V1028.8ZM177.1 1032.7 179.5 1033.1 181.8 1032.7V1046H177.1ZM179.4 1031.6Q178.2 1031.6 177.5 1031Q176.7 1030.4 176.7 1029.3Q176.7 1028.3 177.5 1027.6Q178.2 1027 179.4 1027Q180.7 1027 181.5 1027.6Q182.2 1028.3 182.2 1029.3Q182.2 1030.4 181.5 1031Q180.7 1031.6 179.4 1031.6ZM192 1041.8 195.7 1032.9H200.8L194.6 1046H189.3L183.1 1032.9H188.3ZM209.8 1046.4Q207.4 1046.4 205.5 1045.5Q203.6 1044.6 202.6 1043Q201.5 1041.5 201.5 1039.4Q201.5 1037.3 202.5 1035.8Q203.5 1034.2 205.4 1033.3Q207.2 1032.5 209.4 1032.5Q211.8 1032.5 213.5 1033.5Q215.1 1034.5 216 1036.4Q217 1038.2 217 1040.8H206.6Q206.7 1041 206.8 1041.1Q207.3 1042 208.4 1042.5Q209.5 1042.9 211.1 1042.9Q212.6 1042.9 214 1042.5Q215.4 1042.2 216.6 1041.5V1044.5Q215.3 1045.4 213.5 1045.9Q211.8 1046.4 209.8 1046.4ZM206.4 1038H212.6Q212.4 1037.6 212.3 1037.2Q211.8 1036.5 211.2 1036.2Q210.5 1035.8 209.5 1035.8Q208.5 1035.8 207.8 1036.2Q207 1036.6 206.6 1037.3Q206.5 1037.6 206.4 1038ZM244.5 1028.8V1046H240V1032.9L234.3 1046H229.5L223.8 1033V1046H219.3V1028.8H226.6L231.9 1041.4L237.1 1028.8ZM268.8 1040.5Q268.6 1042.2 267.5 1043.6Q266.4 1044.9 264.6 1045.6Q262.8 1046.4 260.7 1046.4Q258.2 1046.4 256.4 1045.5Q254.6 1044.6 253.5 1043.1Q252.5 1041.5 252.5 1039.4Q252.5 1037.4 253.5 1035.8Q254.6 1034.2 256.4 1033.4Q258.2 1032.5 260.7 1032.5Q262.8 1032.5 264.6 1033.2Q266.4 1034 267.5 1035.3Q268.6 1036.6 268.8 1038.4H264.1Q263.8 1037.2 262.9 1036.6Q262 1036 260.7 1036Q259.6 1036 258.8 1036.4Q258.1 1036.8 257.7 1037.5Q257.2 1038.3 257.2 1039.4Q257.2 1040.5 257.7 1041.3Q258.1 1042.1 258.8 1042.5Q259.6 1042.9 260.7 1042.9Q262 1042.9 262.9 1042.2Q263.9 1041.6 264.1 1040.5ZM270.6 1046V1032.9H275.3V1041.6L281.1 1032.9H287.2V1046H282.5V1037L276.5 1046ZM305.4 1040.5Q305.2 1042.2 304.1 1043.6Q303 1044.9 301.3 1045.6Q299.5 1046.4 297.3 1046.4Q294.9 1046.4 293.1 1045.5Q291.2 1044.6 290.2 1043.1Q289.2 1041.5 289.2 1039.4Q289.2 1037.4 290.2 1035.8Q291.2 1034.2 293.1 1033.4Q294.9 1032.5 297.3 1032.5Q299.5 1032.5 301.3 1033.2Q303 1034 304.1 1035.3Q305.2 1036.6 305.4 1038.4H300.7Q300.5 1037.2 299.6 1036.6Q298.7 1036 297.3 1036Q296.3 1036 295.5 1036.4Q294.7 1036.8 294.3 1037.5Q293.9 1038.3 293.9 1039.4Q293.9 1040.5 294.3 1041.3Q294.7 1042.1 295.5 1042.5Q296.3 1042.9 297.3 1042.9Q298.7 1042.9 299.6 1042.2Q300.5 1041.6 300.7 1040.5ZM306.3 1032.9H321V1036.4H316V1046H311.3V1036.4H306.3ZM330.3 1046.4Q327.9 1046.4 326.1 1045.5Q324.2 1044.6 323.1 1043Q322 1041.5 322 1039.4Q322 1037.3 323.1 1035.8Q324.1 1034.2 325.9 1033.3Q327.7 1032.5 330 1032.5Q332.3 1032.5 334 1033.5Q335.7 1034.5 336.6 1036.4Q337.5 1038.2 337.5 1040.8H327.1Q327.2 1041 327.3 1041.1Q327.9 1042 329 1042.5Q330.1 1042.9 331.7 1042.9Q333.1 1042.9 334.5 1042.5Q336 1042.2 337.2 1041.5V1044.5Q335.8 1045.4 334.1 1045.9Q332.3 1046.4 330.3 1046.4ZM326.9 1038H333.1Q333 1037.6 332.8 1037.2Q332.4 1036.5 331.7 1036.2Q331 1035.8 330.1 1035.8Q329.1 1035.8 328.3 1036.2Q327.6 1036.6 327.2 1037.3Q327 1037.6 326.9 1038ZM339.5 1046V1032.9H346.6L350 1041.7L353.3 1032.9H360.4V1046H356V1036.5L352.1 1046H347.8L343.9 1036.5V1046ZM363 1046V1032.9H367.6V1041.6L373.5 1032.9H379.5V1046H374.9V1037L368.8 1046Z" fill="#F7F5FF" /><text x="54" y="1083.9" font-size="16" fill="#DCD6FF">Игри и прототипи, игрови механики, сървърни ресурси,</text><text x="54" y="1104.9" font-size="16" fill="#DCD6FF">NUI интерфейси, професии, инвентари и инструменти за</text><text x="54" y="1125.9" font-size="16" fill="#DCD6FF">екипа.</text><text x="54" y="1200" font-size="14" fill="#F472B6" font-weight="700">Игрова логика · Клиент и сървър · Съхранение на данни</text><g class="live"><clipPath id="sc3"><rect x="32.0" y="954" width="536" height="268" rx="24"/></clipPath><g clip-path="url(#sc3)"><rect class="shine" style="animation-delay:4.5s" x="-128.0" y="914" width="110" height="348" fill="url(#shine)"/></g></g><linearGradient id="sv4" x1="0" y1="0" x2="1" y2="1"><stop offset="0" stop-color="#34D399" stop-opacity=".2"/><stop offset=".55" stop-color="#0E0B2C" stop-opacity=".9"/><stop offset="1" stop-color="#22D3EE" stop-opacity=".12"/></linearGradient><rect x="32.0" y="1238" width="536" height="268" rx="24" fill="url(#sv4)" stroke="#34D399" stroke-opacity=".45"/><rect x="54.0" y="1238" width="492" height="3" rx="1.5" fill="#34D399"/><path d="M66 1290.4Q62.7 1290.4 60.2 1289.2Q57.8 1287.9 56.4 1285.6Q55.1 1283.3 55.1 1280.2Q55.1 1277.2 56.4 1274.9Q57.8 1272.6 60.2 1271.3Q62.7 1270.1 66 1270.1Q69.3 1270.1 71.8 1271.3Q74.3 1272.6 75.6 1274.9Q77 1277.2 77 1280.2Q77 1283.3 75.6 1285.6Q74.3 1287.9 71.8 1289.2Q69.3 1290.4 66 1290.4ZM66 1286Q68.7 1286 70.1 1284.5Q71.6 1283 71.6 1280.2Q71.6 1277.5 70.1 1276Q68.7 1274.5 66 1274.5Q63.4 1274.5 61.9 1276Q60.4 1277.5 60.4 1280.2Q60.4 1283 61.9 1284.5Q63.4 1286 66 1286ZM81.3 1270.5H96.5V1274.5H84.9L84.2 1278.8Q85.2 1278 86.6 1277.5Q88.1 1277 90 1277Q92.5 1277 94.3 1277.8Q96.1 1278.7 97.1 1280.1Q98.1 1281.5 98.1 1283.4Q98.1 1285.5 96.9 1287Q95.8 1288.6 93.7 1289.5Q91.6 1290.4 88.6 1290.4Q85.7 1290.4 83.5 1289.6Q81.4 1288.7 80.2 1287.3Q79 1285.8 78.8 1284H84.2Q84.4 1285.1 85.6 1285.7Q86.7 1286.3 88.6 1286.3Q89.9 1286.3 90.8 1285.9Q91.7 1285.6 92.2 1284.9Q92.7 1284.3 92.7 1283.4Q92.7 1282.6 92.2 1281.9Q91.8 1281.3 90.9 1280.9Q90 1280.6 88.7 1280.6Q87.6 1280.6 86.8 1280.8Q85.9 1281.1 85.3 1281.4Q84.7 1281.8 84.2 1282.2H79.6Z" fill="none" stroke="#34D399" stroke-width="1.4"/><path d="M68.1 1312.8 76 1330H70.9L69.5 1326.7H60.5L59.1 1330H54L61.9 1312.8ZM67.8 1322.8 65 1316.4 62.2 1322.8ZM77 1330 77.8 1323.4 77 1316.9H87.7Q89.6 1316.9 90.7 1317.8Q91.8 1318.6 91.8 1320.2Q91.8 1321.6 90.7 1322.5Q90.3 1322.8 89.7 1323Q90.7 1323.3 91.4 1323.8Q92.6 1324.7 92.6 1326.3Q92.6 1328 91.4 1329Q90.1 1330 88 1330ZM81.8 1327.1H86.4Q87.2 1327.1 87.5 1326.7Q87.9 1326.4 87.9 1325.8Q87.9 1325.3 87.5 1324.9Q87.1 1324.5 86.2 1324.5H82.1ZM82.1 1322.1H85.7Q86.4 1322.1 86.8 1321.8Q87.1 1321.5 87.1 1320.9Q87.1 1320.4 86.8 1320.1Q86.5 1319.8 85.8 1319.8H81.8ZM93.6 1316.9H108.3V1320.4H103.3V1330H98.6V1320.4H93.6ZM117.8 1330.4Q115.2 1330.4 113.3 1329.5Q111.5 1328.6 110.4 1327.1Q109.3 1325.5 109.3 1323.4Q109.3 1321.4 110.4 1319.8Q111.5 1318.2 113.3 1317.3Q115.2 1316.5 117.8 1316.5Q120.3 1316.5 122.2 1317.3Q124.1 1318.2 125.1 1319.8Q126.2 1321.4 126.2 1323.4Q126.2 1325.5 125.1 1327.1Q124.1 1328.6 122.2 1329.5Q120.3 1330.4 117.8 1330.4ZM117.8 1326.9Q118.9 1326.9 119.7 1326.5Q120.5 1326.1 121 1325.3Q121.4 1324.5 121.4 1323.4Q121.4 1322.3 121 1321.6Q120.5 1320.8 119.7 1320.4Q118.9 1320 117.8 1320Q116.6 1320 115.8 1320.4Q114.9 1320.8 114.5 1321.6Q114.1 1322.3 114.1 1323.4Q114.1 1324.5 114.5 1325.3Q114.9 1326.1 115.8 1326.5Q116.6 1326.9 117.8 1326.9ZM128.2 1330V1316.9H135.2L138.6 1325.7L142 1316.9H149V1330H144.6V1320.5L140.8 1330H136.5L132.6 1320.5V1330ZM163.5 1330 163.2 1327.3Q162.3 1328.7 160.9 1329.5Q159.5 1330.4 157.6 1330.4Q155.7 1330.4 154.2 1329.5Q152.7 1328.6 151.9 1327.1Q151.1 1325.5 151.1 1323.4Q151.1 1321.4 151.9 1319.8Q152.7 1318.2 154.2 1317.3Q155.7 1316.5 157.6 1316.5Q159.5 1316.5 160.9 1317.3Q162.3 1318.1 163.2 1319.5L163.5 1316.9H168.4L167.6 1323.4L168.4 1330ZM155.8 1323.4Q155.8 1324.4 156.2 1325.2Q156.6 1325.9 157.4 1326.4Q158.1 1326.8 159 1326.8Q160 1326.8 160.8 1326.4Q161.7 1325.9 162.3 1325.2Q163 1324.4 163.3 1323.4Q163 1322.5 162.3 1321.7Q161.7 1320.9 160.8 1320.5Q160 1320.1 159 1320.1Q158.1 1320.1 157.4 1320.5Q156.6 1320.9 156.2 1321.7Q155.8 1322.5 155.8 1323.4ZM169.7 1316.9H184.4V1320.4H179.4V1330H174.7V1320.4H169.7ZM186 1330V1316.9H190.6V1325.6L196.5 1316.9H202.5V1330H197.9V1321L191.8 1330ZM212 1330.4Q209.7 1330.4 208 1329.8Q206.3 1329.2 205.3 1328.1Q204.4 1327 204.3 1325.5H208.8Q209 1326.3 209.8 1326.8Q210.6 1327.2 212 1327.2Q213.3 1327.2 214.1 1326.9Q214.8 1326.5 214.8 1325.8Q214.8 1325.2 214.2 1324.9Q213.5 1324.7 212.1 1324.7H209.8V1322.1H212.1Q213.3 1322.1 213.9 1321.8Q214.5 1321.5 214.5 1320.9Q214.5 1320.3 213.8 1320Q213.2 1319.7 212 1319.7Q210.7 1319.7 209.9 1320.1Q209.2 1320.5 209 1321.2H204.5Q204.6 1319.9 205.5 1318.8Q206.4 1317.8 208.1 1317.1Q209.8 1316.5 212.2 1316.5Q214.3 1316.5 215.9 1317Q217.5 1317.5 218.3 1318.3Q219.2 1319.2 219.2 1320.3Q219.2 1321.1 218.7 1321.9Q218.2 1322.6 216.9 1323.1Q216.7 1323.2 216.3 1323.3Q217.3 1323.4 218 1323.8Q219.6 1324.5 219.6 1326.2Q219.6 1327.4 218.7 1328.3Q217.8 1329.3 216.1 1329.8Q214.4 1330.4 212 1330.4ZM233.4 1330 233.1 1327.3Q232.2 1328.7 230.9 1329.5Q229.4 1330.4 227.5 1330.4Q225.6 1330.4 224.1 1329.5Q222.7 1328.6 221.9 1327.1Q221 1325.5 221 1323.4Q221 1321.4 221.9 1319.8Q222.7 1318.2 224.1 1317.3Q225.6 1316.5 227.5 1316.5Q229.4 1316.5 230.9 1317.3Q232.2 1318.1 233.1 1319.5L233.4 1316.9H238.3L237.5 1323.4L238.3 1330ZM225.8 1323.4Q225.8 1324.4 226.2 1325.2Q226.6 1325.9 227.3 1326.4Q228 1326.8 228.9 1326.8Q229.9 1326.8 230.8 1326.4Q231.6 1325.9 232.2 1325.2Q232.9 1324.4 233.2 1323.4Q232.9 1322.5 232.2 1321.7Q231.6 1320.9 230.8 1320.5Q229.9 1320.1 228.9 1320.1Q228 1320.1 227.3 1320.5Q226.6 1320.9 226.2 1321.7Q225.8 1322.5 225.8 1323.4ZM255.9 1316.9V1326.5H258.3V1333.2H254.2V1330H240.6V1316.9H245.3V1326.5H251.2V1316.9ZM260.2 1330V1316.9H264.8V1325.6L270.7 1316.9H276.7V1330H272.1V1321L266 1330ZM279.3 1330V1316.9H284V1325.6L289.8 1316.9H295.8V1330H291.2V1321L285.2 1330ZM304.1 1330V1316.9H308.8V1325.6L314.7 1316.9H320.7V1330H316.1V1321L310 1330ZM341.8 1312.8 349.7 1330H344.6L343.2 1326.7H334.2L332.8 1330H327.7L335.6 1312.8ZM341.5 1322.8 338.7 1316.4 335.9 1322.8ZM351.3 1312.8H356.1V1330H351.3Z" fill="#F7F5FF" /><text x="54" y="1367.9" font-size="16" fill="#DCD6FF">Скриптове за повтарящи се задачи, AI функционалности,</text><text x="54" y="1388.9" font-size="16" fill="#DCD6FF">асистенти, обработка на данни и свързване на услуги.</text><text x="54" y="1484" font-size="14" fill="#34D399" font-weight="700">API · Webhooks · Скриптове · AI интеграции</text><g class="live"><clipPath id="sc4"><rect x="32.0" y="1238" width="536" height="268" rx="24"/></clipPath><g clip-path="url(#sc4)"><rect class="shine" style="animation-delay:6.0s" x="-128.0" y="1198" width="110" height="348" fill="url(#shine)"/></g></g><linearGradient id="sv5" x1="0" y1="0" x2="1" y2="1"><stop offset="0" stop-color="#FBBF24" stop-opacity=".2"/><stop offset=".55" stop-color="#0E0B2C" stop-opacity=".9"/><stop offset="1" stop-color="#34D399" stop-opacity=".12"/></linearGradient><rect x="32.0" y="1522" width="536" height="268" rx="24" fill="url(#sv5)" stroke="#FBBF24" stroke-opacity=".45"/><rect x="54.0" y="1522" width="492" height="3" rx="1.5" fill="#FBBF24"/><path d="M66 1574.4Q62.7 1574.4 60.2 1573.2Q57.8 1571.9 56.4 1569.6Q55.1 1567.3 55.1 1564.2Q55.1 1561.2 56.4 1558.9Q57.8 1556.6 60.2 1555.3Q62.7 1554.1 66 1554.1Q69.3 1554.1 71.8 1555.3Q74.3 1556.6 75.6 1558.9Q77 1561.2 77 1564.2Q77 1567.3 75.6 1569.6Q74.3 1571.9 71.8 1573.2Q69.3 1574.4 66 1574.4ZM66 1570Q68.7 1570 70.1 1568.5Q71.6 1567 71.6 1564.2Q71.6 1561.5 70.1 1560Q68.7 1558.5 66 1558.5Q63.4 1558.5 61.9 1560Q60.4 1561.5 60.4 1564.2Q60.4 1567 61.9 1568.5Q63.4 1570 66 1570ZM89.7 1554.1Q92.2 1554.1 94.2 1554.9Q96.2 1555.6 97.4 1556.9Q98.6 1558.2 98.8 1559.9H93.9Q93.5 1559.1 92.6 1558.6Q91.6 1558 89.9 1558Q88 1558 86.7 1558.7Q85.4 1559.4 84.8 1560.8Q84.2 1562.1 84.2 1564Q84.2 1564.1 84.2 1564.2Q84.3 1564.1 84.4 1564Q85.7 1562.7 87.5 1562Q89.2 1561.3 91.4 1561.3Q93.9 1561.3 95.6 1562.1Q97.4 1562.9 98.3 1564.3Q99.3 1565.7 99.3 1567.6Q99.3 1569.6 98.2 1571.1Q97.1 1572.7 95 1573.5Q92.9 1574.4 89.9 1574.4Q86.3 1574.4 83.9 1573.1Q81.5 1571.8 80.4 1569.5Q79.2 1567.2 79.2 1564.3Q79.2 1561.3 80.4 1559Q81.5 1556.7 83.9 1555.4Q86.2 1554.1 89.7 1554.1ZM84.8 1567.4Q84.9 1567.5 84.9 1567.6Q85.6 1569 86.8 1569.7Q88.1 1570.5 90 1570.5Q91.2 1570.5 92.1 1570.1Q93 1569.8 93.4 1569.2Q93.9 1568.5 93.9 1567.8Q93.9 1567 93.4 1566.4Q93 1565.9 92.2 1565.6Q91.4 1565.2 90.1 1565.2Q88.5 1565.2 86.9 1566Q85.8 1566.5 84.8 1567.4Z" fill="none" stroke="#FBBF24" stroke-width="1.4"/><path d="M73.9 1596.8V1614H69.1V1601H60.4V1614H55.6V1596.8ZM84.6 1614.4Q82.1 1614.4 80.2 1613.5Q78.3 1612.6 77.2 1611.1Q76.2 1609.5 76.2 1607.4Q76.2 1605.4 77.2 1603.8Q78.3 1602.2 80.2 1601.3Q82.1 1600.5 84.6 1600.5Q87.1 1600.5 89 1601.3Q90.9 1602.2 91.9 1603.8Q93 1605.4 93 1607.4Q93 1609.5 91.9 1611.1Q90.9 1612.6 89 1613.5Q87.1 1614.4 84.6 1614.4ZM84.6 1610.9Q85.7 1610.9 86.6 1610.5Q87.4 1610.1 87.8 1609.3Q88.2 1608.5 88.2 1607.4Q88.2 1606.3 87.8 1605.6Q87.4 1604.8 86.6 1604.4Q85.7 1604 84.6 1604Q83.4 1604 82.6 1604.4Q81.8 1604.8 81.3 1605.6Q80.9 1606.3 80.9 1607.4Q80.9 1608.5 81.3 1609.3Q81.8 1610.1 82.6 1610.5Q83.4 1610.9 84.6 1610.9ZM113.7 1610.5V1617.2H109.6V1614H98.2V1617.2H94.1V1610.5H95.8Q97.1 1609 97.1 1604.9Q97.1 1604 97.1 1603Q97 1601.9 96.8 1600.9H111.3V1610.5ZM100.4 1610.6H106.6V1604.3H101.3Q101.3 1604.3 101.3 1604.3Q101.4 1605.2 101.4 1605.9Q101.4 1608.8 100.4 1610.6ZM134.3 1610.5V1617.2H130.2V1614H118.7V1617.2H114.7V1610.5H116.4Q117.7 1609 117.7 1604.9Q117.7 1604 117.6 1603Q117.6 1601.9 117.4 1600.9H131.9V1610.5ZM121 1610.6H127.2V1604.3H121.9Q121.9 1604.3 121.9 1604.3Q121.9 1605.2 121.9 1605.9Q121.9 1608.8 121 1610.6ZM136.2 1600.9H140.9V1603.4Q141.8 1602.1 143.1 1601.3Q144.5 1600.5 146.4 1600.5Q148.3 1600.5 149.8 1601.3Q151.2 1602.2 152.1 1603.8Q152.9 1605.4 152.9 1607.4Q152.9 1609.5 152.1 1611.1Q151.2 1612.6 149.8 1613.5Q148.3 1614.4 146.4 1614.4Q144.5 1614.4 143.1 1613.5Q141.8 1612.7 140.9 1611.4V1617.8H136.2ZM148.1 1607.4Q148.1 1606.5 147.7 1605.7Q147.3 1604.9 146.6 1604.5Q145.9 1604.1 145 1604.1Q144 1604.1 143.2 1604.5Q142.3 1604.9 141.7 1605.7Q141 1606.5 140.7 1607.4Q141 1608.4 141.7 1609.2Q142.3 1609.9 143.2 1610.4Q144 1610.8 145 1610.8Q145.9 1610.8 146.6 1610.4Q147.3 1609.9 147.7 1609.2Q148.1 1608.4 148.1 1607.4ZM162.7 1604.3H166.6Q168.3 1604.3 169.6 1604.9Q170.9 1605.5 171.7 1606.6Q172.4 1607.7 172.4 1609.1Q172.4 1610.6 171.7 1611.7Q170.9 1612.8 169.7 1613.4Q168.4 1614 166.7 1614H158V1604.4H154V1600.9H162.7ZM162.7 1607.5V1610.7H165.8Q166.7 1610.7 167.2 1610.3Q167.6 1609.9 167.6 1609.1Q167.6 1608.3 167.2 1607.9Q166.7 1607.5 165.8 1607.5ZM172.7 1614 177.5 1606.1 173 1600.9H178.3L183.9 1608V1600.9H188.5V1608L194 1600.9H199.3L194.8 1606.1L199.7 1614H194.3L191.8 1609.6L188 1614H184.4L180.5 1609.6L178.1 1614ZM200.9 1614V1600.9H205.6V1608.2L211.5 1600.9H216.5L212 1606.1L216.9 1614H211.6L209 1609.5L205.1 1614ZM229.8 1614 229.5 1611.3Q228.6 1612.7 227.2 1613.5Q225.8 1614.4 223.9 1614.4Q222 1614.4 220.5 1613.5Q219 1612.6 218.2 1611.1Q217.4 1609.5 217.4 1607.4Q217.4 1605.4 218.2 1603.8Q219 1602.2 220.5 1601.3Q222 1600.5 223.9 1600.5Q225.8 1600.5 227.2 1601.3Q228.6 1602.1 229.5 1603.5L229.8 1600.9H234.7L233.9 1607.4L234.7 1614ZM222.2 1607.4Q222.2 1608.4 222.6 1609.2Q223 1609.9 223.7 1610.4Q224.4 1610.8 225.3 1610.8Q226.3 1610.8 227.1 1610.4Q228 1609.9 228.6 1609.2Q229.3 1608.4 229.6 1607.4Q229.3 1606.5 228.6 1605.7Q228 1604.9 227.1 1604.5Q226.3 1604.1 225.3 1604.1Q224.4 1604.1 223.7 1604.5Q223 1604.9 222.6 1605.7Q222.2 1606.5 222.2 1607.4ZM242.6 1614V1600.9H247.3V1609.6L253.2 1600.9H259.2V1614H254.6V1605L248.5 1614ZM267.5 1600.9H272.2V1603.4Q273.1 1602.1 274.4 1601.3Q275.9 1600.5 277.7 1600.5Q279.7 1600.5 281.1 1601.3Q282.6 1602.2 283.4 1603.8Q284.2 1605.4 284.2 1607.4Q284.2 1609.5 283.4 1611.1Q282.6 1612.6 281.1 1613.5Q279.7 1614.4 277.7 1614.4Q275.9 1614.4 274.4 1613.5Q273.1 1612.7 272.2 1611.4V1617.8H267.5ZM279.5 1607.4Q279.5 1606.5 279.1 1605.7Q278.7 1604.9 277.9 1604.5Q277.2 1604.1 276.3 1604.1Q275.4 1604.1 274.5 1604.5Q273.7 1604.9 273 1605.7Q272.4 1606.5 272 1607.4Q272.4 1608.4 273 1609.2Q273.7 1609.9 274.5 1610.4Q275.4 1610.8 276.3 1610.8Q277.2 1610.8 277.9 1610.4Q278.7 1609.9 279.1 1609.2Q279.5 1608.4 279.5 1607.4ZM298.1 1614 297.8 1611.3Q296.9 1612.7 295.5 1613.5Q294.1 1614.4 292.2 1614.4Q290.3 1614.4 288.8 1613.5Q287.3 1612.6 286.5 1611.1Q285.7 1609.5 285.7 1607.4Q285.7 1605.4 286.5 1603.8Q287.3 1602.2 288.8 1601.3Q290.3 1600.5 292.2 1600.5Q294.1 1600.5 295.5 1601.3Q296.9 1602.1 297.8 1603.5L298.1 1600.9H303L302.1 1607.4L303 1614ZM290.4 1607.4Q290.4 1608.4 290.8 1609.2Q291.2 1609.9 292 1610.4Q292.7 1610.8 293.6 1610.8Q294.6 1610.8 295.4 1610.4Q296.3 1609.9 296.9 1609.2Q297.5 1608.4 297.9 1607.4Q297.5 1606.5 296.9 1605.7Q296.3 1604.9 295.4 1604.5Q294.6 1604.1 293.6 1604.1Q292.7 1604.1 292 1604.5Q291.2 1604.9 290.8 1605.7Q290.4 1606.5 290.4 1607.4ZM312.1 1614.4Q309.8 1614.4 308.1 1613.8Q306.4 1613.2 305.4 1612.1Q304.5 1611 304.4 1609.5H308.9Q309.1 1610.3 309.9 1610.8Q310.7 1611.2 312.1 1611.2Q313.5 1611.2 314.2 1610.9Q314.9 1610.5 314.9 1609.8Q314.9 1609.2 314.3 1608.9Q313.6 1608.7 312.2 1608.7H309.9V1606.1H312.2Q313.4 1606.1 314 1605.8Q314.6 1605.5 314.6 1604.9Q314.6 1604.3 313.9 1604Q313.3 1603.7 312.1 1603.7Q310.8 1603.7 310 1604.1Q309.3 1604.5 309.2 1605.2H304.7Q304.7 1603.9 305.6 1602.8Q306.5 1601.8 308.2 1601.1Q309.9 1600.5 312.3 1600.5Q314.4 1600.5 316 1601Q317.6 1601.5 318.5 1602.3Q319.4 1603.2 319.4 1604.3Q319.4 1605.1 318.8 1605.9Q318.3 1606.6 317.1 1607.1Q316.8 1607.2 316.5 1607.3Q317.4 1607.4 318.2 1607.8Q319.7 1608.5 319.7 1610.2Q319.7 1611.4 318.8 1612.3Q317.9 1613.3 316.2 1613.8Q314.5 1614.4 312.1 1614.4ZM321.4 1614 322.2 1607.4 321.4 1600.9H332.1Q334 1600.9 335.1 1601.8Q336.2 1602.6 336.2 1604.2Q336.2 1605.6 335.1 1606.5Q334.7 1606.8 334.1 1607Q335.1 1607.3 335.8 1607.8Q337 1608.7 337 1610.3Q337 1612 335.8 1613Q334.5 1614 332.4 1614ZM326.2 1611.1H330.8Q331.6 1611.1 331.9 1610.7Q332.3 1610.4 332.3 1609.8Q332.3 1609.3 331.9 1608.9Q331.5 1608.5 330.6 1608.5H326.5ZM326.5 1606.1H330.1Q330.8 1606.1 331.2 1605.8Q331.5 1605.5 331.5 1604.9Q331.5 1604.4 331.2 1604.1Q330.9 1603.8 330.2 1603.8H326.2ZM339 1614V1600.9H343.6V1609.6L349.5 1600.9H355.5V1614H350.9V1605L344.9 1614ZM357.2 1600.9H371.9V1604.4H366.9V1614H362.2V1604.4H357.2ZM373.5 1614V1600.9H378.1V1609.6L384 1600.9H390V1614H385.4V1605L379.3 1614ZM400.3 1614.4Q397.9 1614.4 396 1613.5Q394.2 1612.6 393.1 1611Q392 1609.5 392 1607.4Q392 1605.3 393 1603.8Q394.1 1602.2 395.9 1601.3Q397.7 1600.5 400 1600.5Q402.3 1600.5 404 1601.5Q405.7 1602.5 406.6 1604.4Q407.5 1606.2 407.5 1608.8H397.1Q397.2 1609 397.3 1609.1Q397.9 1610 399 1610.5Q400.1 1610.9 401.6 1610.9Q403.1 1610.9 404.5 1610.5Q406 1610.2 407.1 1609.5V1612.5Q405.8 1613.4 404 1613.9Q402.3 1614.4 400.3 1614.4ZM396.9 1606H403.1Q403 1605.6 402.8 1605.2Q402.4 1604.5 401.7 1604.2Q401 1603.8 400.1 1603.8Q399 1603.8 398.3 1604.2Q397.6 1604.6 397.2 1605.3Q397 1605.6 396.9 1606Z" fill="#F7F5FF" /><text x="54" y="1651.9" font-size="16" fill="#DCD6FF">Нови функции, поправка на грешки, преработка на код,</text><text x="54" y="1672.9" font-size="16" fill="#DCD6FF">оптимизация, миграции, подобрения на интерфейса и</text><text x="54" y="1693.9" font-size="16" fill="#DCD6FF">подготовка за публикуване.</text><text x="54" y="1768" font-size="14" fill="#FBBF24" font-weight="700">Съществуващи проекти · Технически подобрения · Поддръжка</text><g class="live"><clipPath id="sc5"><rect x="32.0" y="1522" width="536" height="268" rx="24"/></clipPath><g clip-path="url(#sc5)"><rect class="shine" style="animation-delay:7.5s" x="-128.0" y="1482" width="110" height="348" fill="url(#shine)"/></g></g></g></svg>
