<svg xmlns="http://www.w3.org/2000/svg" width="1200" height="706" viewBox="0 0 1200 706" role="img" aria-labelledby="title desc"><title id="title">Languages by code volume</title><desc id="desc">Languages by code volume Source: GitHub. Motion is decorative, never simulated activity.</desc><defs><linearGradient id="bg" x1="0" y1="0" x2="1" y2="1"><stop offset="0" stop-color="#08061A"/><stop offset="0.55" stop-color="#161045"/><stop offset="1" stop-color="#071B2B"/></linearGradient><linearGradient id="accent" x1="0" y1="0" x2="1" y2="0"><stop offset="0" stop-color="#8B5CF6"/><stop offset="0.5" stop-color="#22D3EE"/><stop offset="1" stop-color="#34D399"/></linearGradient><radialGradient id="au1"><stop offset="0" stop-color="#8B5CF6" stop-opacity="0.38"/><stop offset=".55" stop-color="#8B5CF6" stop-opacity="0.133"/><stop offset="1" stop-color="#8B5CF6" stop-opacity="0"/></radialGradient><radialGradient id="au2"><stop offset="0" stop-color="#22D3EE" stop-opacity="0.26"/><stop offset=".55" stop-color="#22D3EE" stop-opacity="0.091"/><stop offset="1" stop-color="#22D3EE" stop-opacity="0"/></radialGradient><linearGradient id="sweep" x1="0" y1="0" x2="1" y2="0"><stop offset="0" stop-color="#fff" stop-opacity="0"/><stop offset="0.5" stop-color="#fff" stop-opacity="0.5"/><stop offset="1" stop-color="#fff" stop-opacity="0"/></linearGradient></defs><style>text{font-family:'Segoe UI','Helvetica Neue',Helvetica,Arial,sans-serif}.mono{font-family:ui-monospace,'SF Mono','Cascadia Mono',Menlo,Consolas,monospace}.live{display:none}@media (prefers-reduced-motion:no-preference){.live{display:inline}.still{display:none}.aur{animation:aur 28s ease-in-out infinite}@keyframes aur{50%{transform:translate(-70px,30px)}}.signal{animation:signal 12s cubic-bezier(.6,0,.3,1) infinite}@keyframes signal{0%{transform:translateX(0);opacity:0}10%{opacity:1}85%{opacity:1}100%{transform:translateX(1000px);opacity:0}}.sweep{animation:sweep 9s ease-in-out infinite}@keyframes sweep{0%,15%{transform:translateX(0)}60%,100%{transform:translateX(1344px)}}}</style><clipPath id="frame"><rect width="1200" height="706" rx="28"/></clipPath><rect width="1200" height="706" rx="28" fill="url(#bg)"/><g clip-path="url(#frame)"><g class="aur"><circle cx="1020" cy="71" r="540" fill="url(#au1)"/></g><circle cx="60" cy="706" r="480" fill="url(#au2)"/><rect width="1200" height="4" fill="url(#accent)"/><text x="48" y="52" font-size="13" fill="#F472B6" font-weight="800" letter-spacing="2.4">CODE · LANGUAGE MIX</text><text x="48" y="98" font-size="38" fill="#F7F5FF" font-weight="800">The languages behind the products.</text><text x="48" y="130" font-size="16" fill="#ADA6DA">Share of code bytes · profile repository excluded</text><clipPath id="bar"><rect x="48" y="158" width="1104" height="22" rx="11"/></clipPath><g clip-path="url(#bar)"><rect x="48.00" y="158" width="407.23" height="22" fill="#3178c6"/><rect x="454.73" y="158" width="229.28" height="22" fill="#e34c26"/><rect x="683.51" y="158" width="227.75" height="22" fill="#f1e05a"/><rect x="910.76" y="158" width="92.60" height="22" fill="#663399"/><rect x="1002.86" y="158" width="81.84" height="22" fill="#F05138"/><rect x="1084.20" y="158" width="45.79" height="22" fill="#336790"/><rect x="1129.49" y="158" width="23.01" height="22" fill="#8B8FB0"/><rect class="live sweep" x="-72" y="158" width="120" height="22" fill="url(#sweep)"/></g><circle cx="56" cy="229" r="8" fill="#3178c6" stroke="#fff" stroke-opacity=".35"/><text x="74" y="236" font-size="21" fill="#F7F5FF" font-weight="700">TypeScript</text><text x="1152" y="236" font-size="20" fill="#DCD6FF" font-weight="700" text-anchor="end">36.8%</text><rect x="48" y="249" width="1104" height="8" rx="4" fill="#2A2457"/><rect x="48" y="249" width="406.73" height="8" rx="4" fill="#3178c6"/><circle cx="56" cy="287" r="8" fill="#e34c26" stroke="#fff" stroke-opacity=".35"/><text x="74" y="294" font-size="21" fill="#F7F5FF" font-weight="700">HTML</text><text x="1152" y="294" font-size="20" fill="#DCD6FF" font-weight="700" text-anchor="end">20.7%</text><rect x="48" y="307" width="1104" height="8" rx="4" fill="#2A2457"/><rect x="48" y="307" width="228.78" height="8" rx="4" fill="#e34c26"/><circle cx="56" cy="345" r="8" fill="#f1e05a" stroke="#fff" stroke-opacity=".35"/><text x="74" y="352" font-size="21" fill="#F7F5FF" font-weight="700">JavaScript</text><text x="1152" y="352" font-size="20" fill="#DCD6FF" font-weight="700" text-anchor="end">20.6%</text><rect x="48" y="365" width="1104" height="8" rx="4" fill="#2A2457"/><rect x="48" y="365" width="227.25" height="8" rx="4" fill="#f1e05a"/><circle cx="56" cy="403" r="8" fill="#663399" stroke="#fff" stroke-opacity=".35"/><text x="74" y="410" font-size="21" fill="#F7F5FF" font-weight="700">CSS</text><text x="1152" y="410" font-size="20" fill="#DCD6FF" font-weight="700" text-anchor="end">8.3%</text><rect x="48" y="423" width="1104" height="8" rx="4" fill="#2A2457"/><rect x="48" y="423" width="92.10" height="8" rx="4" fill="#663399"/><circle cx="56" cy="461" r="8" fill="#F05138" stroke="#fff" stroke-opacity=".35"/><text x="74" y="468" font-size="21" fill="#F7F5FF" font-weight="700">Swift</text><text x="1152" y="468" font-size="20" fill="#DCD6FF" font-weight="700" text-anchor="end">7.4%</text><rect x="48" y="481" width="1104" height="8" rx="4" fill="#2A2457"/><rect x="48" y="481" width="81.34" height="8" rx="4" fill="#F05138"/><circle cx="56" cy="519" r="8" fill="#336790" stroke="#fff" stroke-opacity=".35"/><text x="74" y="526" font-size="21" fill="#F7F5FF" font-weight="700">PLpgSQL</text><text x="1152" y="526" font-size="20" fill="#DCD6FF" font-weight="700" text-anchor="end">4.1%</text><rect x="48" y="539" width="1104" height="8" rx="4" fill="#2A2457"/><rect x="48" y="539" width="45.29" height="8" rx="4" fill="#336790"/><circle cx="56" cy="577" r="8" fill="#8B8FB0" stroke="#fff" stroke-opacity=".35"/><text x="74" y="584" font-size="21" fill="#F7F5FF" font-weight="700">Other</text><text x="1152" y="584" font-size="20" fill="#DCD6FF" font-weight="700" text-anchor="end">2.0%</text><rect x="48" y="597" width="1104" height="8" rx="4" fill="#2A2457"/><rect x="48" y="597" width="22.51" height="8" rx="4" fill="#8B8FB0"/><text x="48" y="650" font-size="15" fill="#DCD6FF">Measured: 2026-10-05</text><text x="48" y="678" font-size="15" fill="#ADA6DA">Code volume, not time spent or proficiency.</text></g></svg>
